<?xml version="1.0" encoding="UTF-8"?>
<!DOCTYPE svg PUBLIC "-//W3C//DTD SVG 1.1//EN" "http://www.w3.org/Graphics/SVG/1.1/DTD/svg11.dtd">
<svg xmlns="http://www.w3.org/2000/svg" version="1.1" width="512px" height="512px" style="shape-rendering:geometricPrecision; text-rendering:geometricPrecision; image-rendering:optimizeQuality; fill-rule:evenodd; clip-rule:evenodd" xmlns:xlink="http://www.w3.org/1999/xlink">
<g><path style="opacity:1" fill="#f9f9f9" d="M 386.5,58.5 C 386.973,59.9063 387.973,60.573 389.5,60.5C 393.707,62.4354 397.373,65.1021 400.5,68.5C 400.973,69.9063 401.973,70.573 403.5,70.5C 406.784,72.117 409.451,74.4503 411.5,77.5C 411.973,78.9063 412.973,79.573 414.5,79.5C 416.5,80.8333 418.167,82.5 419.5,84.5C 421.239,87.2427 423.573,89.2427 426.5,90.5C 427.08,92.7488 428.413,94.4154 430.5,95.5C 432.833,97.1667 434.833,99.1667 436.5,101.5C 436.738,103.404 437.738,104.738 439.5,105.5C 440.833,106.167 441.833,107.167 442.5,108.5C 442.427,110.027 443.094,111.027 444.5,111.5C 445.5,111.833 446.167,112.5 446.5,113.5C 446.427,115.027 447.094,116.027 448.5,116.5C 449.167,116.5 449.5,116.833 449.5,117.5C 449.427,119.027 450.094,120.027 451.5,120.5C 481.904,162.885 497.237,210.385 497.5,263C 497.011,314.631 481.678,361.131 451.5,402.5C 450.094,402.973 449.427,403.973 449.5,405.5C 448.876,407.754 447.543,409.421 445.5,410.5C 444.094,410.973 443.427,411.973 443.5,413.5C 440.208,418.46 436.208,422.793 431.5,426.5C 429.413,427.585 428.08,429.251 427.5,431.5C 427.167,432.5 426.5,433.167 425.5,433.5C 422.573,434.757 420.239,436.757 418.5,439.5C 411.732,446.936 404.065,453.269 395.5,458.5C 393.973,458.427 392.973,459.094 392.5,460.5C 391.71,461.401 390.71,462.068 389.5,462.5C 387.973,462.427 386.973,463.094 386.5,464.5C 369.791,475.687 351.791,484.52 332.5,491C 322.362,493.508 316.528,489.675 315,479.5C 314.819,463.67 314.986,447.837 315.5,432C 316.597,415.793 314.763,399.96 310,384.5C 307.794,378.814 304.628,373.814 300.5,369.5C 300.833,368.833 301.167,368.167 301.5,367.5C 321.415,365.417 340.415,360.084 358.5,351.5C 360.027,351.573 361.027,350.906 361.5,349.5C 365.97,346.759 370.304,343.759 374.5,340.5C 376.027,340.573 377.027,339.906 377.5,338.5C 379.167,337.5 380.5,336.167 381.5,334.5C 383.262,333.738 384.262,332.404 384.5,330.5C 386.177,328.46 387.844,326.46 389.5,324.5C 390.906,324.027 391.573,323.027 391.5,321.5C 408.534,289.562 413.034,255.896 405,220.5C 402.231,211.631 398.397,203.298 393.5,195.5C 393.573,193.973 392.906,192.973 391.5,192.5C 388.807,189.803 386.473,186.803 384.5,183.5C 391.083,162.305 390.416,141.305 382.5,120.5C 371.478,119.749 360.811,121.582 350.5,126C 338.27,131.361 326.77,137.861 316,145.5C 275.664,134.833 235.331,134.833 195,145.5C 176.786,131.894 156.452,123.227 134,119.5C 132.175,119.943 130.342,120.277 128.5,120.5C 120.35,141.285 119.684,162.285 126.5,183.5C 104.211,211.074 96.711,242.408 104,277.5C 106.454,296.383 113.287,313.383 124.5,328.5C 124.738,330.404 125.738,331.738 127.5,332.5C 129.833,334.167 131.833,336.167 133.5,338.5C 134.262,340.262 135.596,341.262 137.5,341.5C 158.39,356.259 181.723,364.925 207.5,367.5C 208.5,368.167 209.5,368.833 210.5,369.5C 203.167,377.806 198.501,387.472 196.5,398.5C 195.599,399.29 194.932,400.29 194.5,401.5C 178.255,409.203 161.921,409.37 145.5,402C 143.907,401.051 142.574,399.885 141.5,398.5C 141.027,397.094 140.027,396.427 138.5,396.5C 134.788,393.789 131.788,390.456 129.5,386.5C 129.573,384.973 128.906,383.973 127.5,383.5C 124.179,378.871 120.846,374.204 117.5,369.5C 116.415,367.413 114.749,366.08 112.5,365.5C 105.169,359.83 96.8355,356.497 87.5,355.5C 84.4527,355.968 81.6193,356.968 79,358.5C 78.3333,359.833 78.3333,361.167 79,362.5C 82.8668,366.846 87.3668,370.346 92.5,373C 95.0386,375.37 97.3719,377.87 99.5,380.5C 99.427,382.027 100.094,383.027 101.5,383.5C 104.521,386.366 107.021,389.7 109,393.5C 116.725,418.564 133.559,432.73 159.5,436C 170.555,436.673 181.555,436.173 192.5,434.5C 194.083,436.508 195.083,438.841 195.5,441.5C 195.186,454.217 195.519,466.883 196.5,479.5C 194.288,489.113 188.288,492.946 178.5,491C 154.045,482.777 131.711,470.944 111.5,455.5C 111.027,454.094 110.027,453.427 108.5,453.5C 106.091,452.299 104.091,450.633 102.5,448.5C 102.027,447.094 101.027,446.427 99.5,446.5C 97.8333,445.5 96.5,444.167 95.5,442.5C 94.4154,440.413 92.7488,439.08 90.5,438.5C 86.5,435.167 82.8333,431.5 79.5,427.5C 79.2624,425.596 78.2624,424.262 76.5,423.5C 74.1667,421.833 72.1667,419.833 70.5,417.5C 70.573,415.973 69.9063,414.973 68.5,414.5C 67.5,414.167 66.8333,413.5 66.5,412.5C 66.573,410.973 65.9063,409.973 64.5,409.5C 26.6624,360.465 9.82909,304.799 14,242.5C 18.2063,191.324 36.7063,146.324 69.5,107.5C 70.9063,107.027 71.573,106.027 71.5,104.5C 72.8333,102.5 74.5,100.833 76.5,99.5C 78.914,98.0892 80.5806,96.0892 81.5,93.5C 83.5,90.8333 85.8333,88.5 88.5,86.5C 91.0892,85.5806 93.0892,83.914 94.5,81.5C 95.5,79.8333 96.8333,78.5 98.5,77.5C 100.027,77.573 101.027,76.9063 101.5,75.5C 101.833,74.5 102.5,73.8333 103.5,73.5C 105.027,73.573 106.027,72.9063 106.5,71.5C 109.19,68.8154 112.19,66.4821 115.5,64.5C 117.027,64.573 118.027,63.9063 118.5,62.5C 120.147,60.6736 122.147,59.3403 124.5,58.5C 126.027,58.573 127.027,57.9063 127.5,56.5C 188.678,19.3814 254.011,10.2148 323.5,29C 346.13,35.6517 367.13,45.4851 386.5,58.5 Z"/></g>
<g><path style="opacity:0.922" fill="#484646" d="M 127.5,56.5 C 127.027,57.9063 126.027,58.573 124.5,58.5C 124.973,57.0937 125.973,56.427 127.5,56.5 Z"/></g>
<g><path style="opacity:0.18" fill="#1a1919" d="M 386.5,58.5 C 388.027,58.427 389.027,59.0937 389.5,60.5C 387.973,60.573 386.973,59.9063 386.5,58.5 Z"/></g>
<g><path style="opacity:0.945" fill="#535151" d="M 118.5,62.5 C 118.027,63.9063 117.027,64.573 115.5,64.5C 115.973,63.0937 116.973,62.427 118.5,62.5 Z"/></g>
<g><path style="opacity:0.118" fill="#1e1e1e" d="M 400.5,68.5 C 402.027,68.427 403.027,69.0937 403.5,70.5C 401.973,70.573 400.973,69.9063 400.5,68.5 Z"/></g>
<g><path style="opacity:0.871" fill="#2e2e2e" d="M 106.5,71.5 C 106.027,72.9063 105.027,73.573 103.5,73.5C 103.973,72.0937 104.973,71.427 106.5,71.5 Z"/></g>
<g><path style="opacity:0.765" fill="#131111" d="M 101.5,75.5 C 101.027,76.9063 100.027,77.573 98.5,77.5C 98.9731,76.0937 99.9731,75.427 101.5,75.5 Z"/></g>
<g><path style="opacity:0.102" fill="#292424" d="M 411.5,77.5 C 413.027,77.427 414.027,78.0937 414.5,79.5C 412.973,79.573 411.973,78.9063 411.5,77.5 Z"/></g>
<g><path style="opacity:0.945" fill="#484646" d="M 94.5,81.5 C 93.0892,83.914 91.0892,85.5806 88.5,86.5C 89.9108,84.086 91.9108,82.4194 94.5,81.5 Z"/></g>
<g><path style="opacity:0.796" fill="#1c1919" d="M 419.5,84.5 C 422.427,85.7573 424.761,87.7573 426.5,90.5C 423.573,89.2427 421.239,87.2427 419.5,84.5 Z"/></g>
<g><path style="opacity:0.544" fill="#111010" d="M 426.5,90.5 C 428.587,91.5846 429.92,93.2512 430.5,95.5C 428.413,94.4154 427.08,92.7488 426.5,90.5 Z"/></g>
<g><path style="opacity:0.757" fill="#2b2929" d="M 81.5,93.5 C 80.5806,96.0892 78.914,98.0892 76.5,99.5C 77.4194,96.9108 79.086,94.9108 81.5,93.5 Z"/></g>
<g><path style="opacity:0.773" fill="#282828" d="M 436.5,101.5 C 438.262,102.262 439.262,103.596 439.5,105.5C 437.738,104.738 436.738,103.404 436.5,101.5 Z"/></g>
<g><path style="opacity:0.78" fill="#111111" d="M 71.5,104.5 C 71.573,106.027 70.9063,107.027 69.5,107.5C 69.427,105.973 70.0937,104.973 71.5,104.5 Z"/></g>
<g><path style="opacity:0.647" fill="#191919" d="M 442.5,108.5 C 443.906,108.973 444.573,109.973 444.5,111.5C 443.094,111.027 442.427,110.027 442.5,108.5 Z"/></g>
<g><path style="opacity:0.616" fill="#131010" d="M 446.5,113.5 C 447.906,113.973 448.573,114.973 448.5,116.5C 447.094,116.027 446.427,115.027 446.5,113.5 Z"/></g>
<g><path style="opacity:0.529" fill="#1a1919" d="M 449.5,117.5 C 450.906,117.973 451.573,118.973 451.5,120.5C 450.094,120.027 449.427,119.027 449.5,117.5 Z"/></g>
<g><path style="opacity:0.465" fill="#131111" d="M 391.5,192.5 C 392.906,192.973 393.573,193.973 393.5,195.5C 392.094,195.027 391.427,194.027 391.5,192.5 Z"/></g>
<g><path style="opacity:0.506" fill="#1a1919" d="M 391.5,321.5 C 391.573,323.027 390.906,324.027 389.5,324.5C 389.427,322.973 390.094,321.973 391.5,321.5 Z"/></g>
<g><path style="opacity:0.773" fill="#292828" d="M 124.5,328.5 C 126.262,329.262 127.262,330.596 127.5,332.5C 125.738,331.738 124.738,330.404 124.5,328.5 Z"/></g>
<g><path style="opacity:0.544" fill="#121111" d="M 384.5,330.5 C 384.262,332.404 383.262,333.738 381.5,334.5C 381.738,332.596 382.738,331.262 384.5,330.5 Z"/></g>
<g><path style="opacity:0.694" fill="#111010" d="M 381.5,334.5 C 380.5,336.167 379.167,337.5 377.5,338.5C 377.833,336.167 379.167,334.833 381.5,334.5 Z"/></g>
<g><path style="opacity:0.039" fill="#141313" d="M 133.5,338.5 C 135.404,338.738 136.738,339.738 137.5,341.5C 135.596,341.262 134.262,340.262 133.5,338.5 Z"/></g>
<g><path style="opacity:0.871" fill="#2f2f2f" d="M 377.5,338.5 C 377.027,339.906 376.027,340.573 374.5,340.5C 374.973,339.094 375.973,338.427 377.5,338.5 Z"/></g>
<g><path style="opacity:0.871" fill="#2f2f2f" d="M 361.5,349.5 C 361.027,350.906 360.027,351.573 358.5,351.5C 358.973,350.094 359.973,349.427 361.5,349.5 Z"/></g>
<g><path style="opacity:0.782" fill="#171414" d="M 99.5,362.5 C 104.123,361.408 105.956,363.075 105,367.5C 103.132,368.672 101.298,368.505 99.5,367C 98.2721,365.51 98.2721,364.01 99.5,362.5 Z"/></g>
<g><path style="opacity:0.765" fill="#1a1919" d="M 112.5,365.5 C 114.749,366.08 116.415,367.413 117.5,369.5C 115.251,368.92 113.585,367.587 112.5,365.5 Z"/></g>
<g><path style="opacity:0.444" fill="#151414" d="M 207.5,367.5 C 208.978,367.238 210.311,367.571 211.5,368.5C 211.376,369.107 211.043,369.44 210.5,369.5C 209.5,368.833 208.5,368.167 207.5,367.5 Z"/></g>
<g><path style="opacity:0.525" fill="#161414" d="M 301.5,367.5 C 301.167,368.167 300.833,368.833 300.5,369.5C 299.243,368.377 299.576,367.711 301.5,367.5 Z"/></g>
<g><path style="opacity:0.783" fill="#171515" d="M 109.5,370.5 C 114.751,370.572 116.751,373.072 115.5,378C 109.946,378.283 107.946,375.783 109.5,370.5 Z"/></g>
<g><path style="opacity:0.678" fill="#2b2525" d="M 99.5,380.5 C 100.906,380.973 101.573,381.973 101.5,383.5C 100.094,383.027 99.427,382.027 99.5,380.5 Z"/></g>
<g><path style="opacity:0.838" fill="#171515" d="M 119.5,382.5 C 125.399,383.8 127.066,386.967 124.5,392C 118.473,391.113 116.807,387.947 119.5,382.5 Z"/></g>
<g><path style="opacity:0.039" fill="#282828" d="M 127.5,383.5 C 128.906,383.973 129.573,384.973 129.5,386.5C 128.094,386.027 127.427,385.027 127.5,383.5 Z"/></g>
<g><path style="opacity:0.868" fill="#171515" d="M 130.5,396.5 C 137.357,396.508 139.69,399.675 137.5,406C 130.698,406.248 128.364,403.081 130.5,396.5 Z"/></g>
<g><path style="opacity:0.363" fill="#2e2d2d" d="M 138.5,396.5 C 140.027,396.427 141.027,397.094 141.5,398.5C 139.973,398.573 138.973,397.906 138.5,396.5 Z"/></g>
<g><path style="opacity:0.055" fill="#1a1a1a" d="M 196.5,398.5 C 196.715,400.179 196.048,401.179 194.5,401.5C 194.932,400.29 195.599,399.29 196.5,398.5 Z"/></g>
<g><path style="opacity:0.149" fill="#1f1f1f" d="M 451.5,402.5 C 451.573,404.027 450.906,405.027 449.5,405.5C 449.427,403.973 450.094,402.973 451.5,402.5 Z"/></g>
<g><path style="opacity:0.862" fill="#171515" d="M 146.5,407.5 C 150.287,406.814 153.454,407.814 156,410.5C 156.588,413.588 155.255,415.255 152,415.5C 146.64,415.005 144.807,412.338 146.5,407.5 Z"/></g>
<g><path style="opacity:0.866" fill="#171515" d="M 188.5,407.5 C 196.454,410.387 196.454,413.387 188.5,416.5C 181.962,413.617 181.962,410.617 188.5,407.5 Z"/></g>
<g><path style="opacity:0.445" fill="#131111" d="M 64.5,409.5 C 65.9063,409.973 66.573,410.973 66.5,412.5C 65.0937,412.027 64.427,411.027 64.5,409.5 Z"/></g>
<g><path style="opacity:0.857" fill="#171515" d="M 167.5,410.5 C 169.92,410.292 172.253,410.626 174.5,411.5C 175.9,417.183 173.566,419.35 167.5,418C 163.683,415.477 163.683,412.977 167.5,410.5 Z"/></g>
<g><path style="opacity:0.024" fill="#0d0d0d" d="M 445.5,410.5 C 445.573,412.027 444.906,413.027 443.5,413.5C 443.427,411.973 444.094,410.973 445.5,410.5 Z"/></g>
<g><path style="opacity:0.063" fill="#100e0e" d="M 68.5,414.5 C 69.9063,414.973 70.573,415.973 70.5,417.5C 69.0937,417.027 68.427,416.027 68.5,414.5 Z"/></g>
<g><path style="opacity:0.055" fill="#101010" d="M 76.5,423.5 C 78.2624,424.262 79.2624,425.596 79.5,427.5C 77.7376,426.738 76.7376,425.404 76.5,423.5 Z"/></g>
<g><path style="opacity:0.039" fill="#141313" d="M 431.5,426.5 C 430.92,428.749 429.587,430.415 427.5,431.5C 428.08,429.251 429.413,427.585 431.5,426.5 Z"/></g>
<g><path style="opacity:0.063" fill="#171515" d="M 425.5,433.5 C 423.761,436.243 421.427,438.243 418.5,439.5C 420.239,436.757 422.573,434.757 425.5,433.5 Z"/></g>
<g><path style="opacity:0.804" fill="#252222" d="M 90.5,438.5 C 92.7488,439.08 94.4154,440.413 95.5,442.5C 93.2512,441.92 91.5846,440.587 90.5,438.5 Z"/></g>
<g><path style="opacity:0.871" fill="#373636" d="M 192.5,434.5 C 193.209,433.596 194.209,433.263 195.5,433.5C 195.5,436.167 195.5,438.833 195.5,441.5C 195.083,438.841 194.083,436.508 192.5,434.5 Z"/></g>
<g><path style="opacity:0.78" fill="#111010" d="M 99.5,446.5 C 101.027,446.427 102.027,447.094 102.5,448.5C 100.973,448.573 99.9731,447.906 99.5,446.5 Z"/></g>
<g><path style="opacity:0.686" fill="#343030" d="M 108.5,453.5 C 110.027,453.427 111.027,454.094 111.5,455.5C 109.973,455.573 108.973,454.906 108.5,453.5 Z"/></g>
<g><path style="opacity:0.008" fill="#0f0d0d" d="M 395.5,458.5 C 395.027,459.906 394.027,460.573 392.5,460.5C 392.973,459.094 393.973,458.427 395.5,458.5 Z"/></g>
<g><path style="opacity:0.008" fill="#0e0c0c" d="M 389.5,462.5 C 389.027,463.906 388.027,464.573 386.5,464.5C 386.973,463.094 387.973,462.427 389.5,462.5 Z"/></g>
</svg>
