<?xml version="1.0" encoding="UTF-8"?>
<!DOCTYPE svg PUBLIC "-//W3C//DTD SVG 1.1//EN" "http://www.w3.org/Graphics/SVG/1.1/DTD/svg11.dtd">
<svg xmlns="http://www.w3.org/2000/svg" version="1.1" width="512px" height="419px" style="shape-rendering:geometricPrecision; text-rendering:geometricPrecision; image-rendering:optimizeQuality; fill-rule:evenodd; clip-rule:evenodd" xmlns:xlink="http://www.w3.org/1999/xlink">
<g><path style="opacity:1" fill="#f3f3f3" d="M 362.5,-0.5 C 365.167,-0.5 367.833,-0.5 370.5,-0.5C 375.294,0.729975 380.294,1.56331 385.5,2C 390.536,3.39571 392.869,6.72904 392.5,12C 392.112,16.3825 391.445,20.7159 390.5,25C 393.537,27.1784 396.537,29.3451 399.5,31.5C 399.973,32.9063 400.973,33.573 402.5,33.5C 403.167,33.5 403.5,33.8333 403.5,34.5C 403.783,35.2891 404.283,35.9558 405,36.5C 406.518,35.8366 407.685,34.8366 408.5,33.5C 408.5,32.8333 408.833,32.5 409.5,32.5C 411.027,32.573 412.027,31.9063 412.5,30.5C 416.079,25.5203 420.412,24.5203 425.5,27.5C 426.167,28.8333 427.167,29.8333 428.5,30.5C 429.167,30.5 429.5,30.8333 429.5,31.5C 429.427,33.0269 430.094,34.0269 431.5,34.5C 432.167,34.5 432.5,34.8333 432.5,35.5C 432.427,37.0269 433.094,38.0269 434.5,38.5C 440.348,42.5813 441.848,47.9146 439,54.5C 438.292,55.3805 437.458,56.0472 436.5,56.5C 434.973,56.427 433.973,57.0937 433.5,58.5C 433.5,59.1667 433.167,59.5 432.5,59.5C 430.973,59.427 429.973,60.0937 429.5,61.5C 429.5,62.1667 429.167,62.5 428.5,62.5C 425.691,62.9577 425.024,64.2911 426.5,66.5C 428.391,71.2899 429.391,76.2899 429.5,81.5C 434.861,82.0992 440.194,82.9326 445.5,84C 448.59,86.0157 450.257,88.8491 450.5,92.5C 449.496,99.8653 448.33,107.199 447,114.5C 445.833,115.667 444.667,116.833 443.5,118C 438.748,118.773 434.081,118.607 429.5,117.5C 428.551,116.848 427.385,116.514 426,116.5C 424.319,116.608 423.152,117.275 422.5,118.5C 420.486,123.357 417.819,127.857 414.5,132C 416.539,133.926 418.206,136.093 419.5,138.5C 419.427,140.027 420.094,141.027 421.5,141.5C 425.327,145.413 425.327,149.413 421.5,153.5C 419.973,153.427 418.973,154.094 418.5,155.5C 418.5,156.167 418.167,156.5 417.5,156.5C 415.973,156.427 414.973,157.094 414.5,158.5C 414.5,159.167 414.167,159.5 413.5,159.5C 411.973,159.427 410.973,160.094 410.5,161.5C 406.743,166.76 402.077,168.093 396.5,165.5C 395.833,164.167 394.833,163.167 393.5,162.5C 390.522,159.187 387.522,155.853 384.5,152.5C 380.032,154.45 375.366,155.45 370.5,155.5C 369.5,155.5 368.5,155.5 367.5,155.5C 367.5,156.5 367.5,157.5 367.5,158.5C 367.562,163.076 366.895,167.409 365.5,171.5C 363.833,172.5 362.5,173.833 361.5,175.5C 358.36,176.641 355.027,176.808 351.5,176C 346.833,175.333 342.167,174.667 337.5,174C 336.584,173.722 335.918,173.222 335.5,172.5C 334.833,171.167 333.833,170.167 332.5,169.5C 331.566,168.228 330.899,166.728 330.5,165C 332.024,159.858 332.358,154.692 331.5,149.5C 326.901,146.953 322.401,144.286 318,141.5C 313.844,144.318 309.677,147.152 305.5,150C 298.744,150.766 294.077,147.932 291.5,141.5C 291.573,139.973 290.906,138.973 289.5,138.5C 288.833,138.5 288.5,138.167 288.5,137.5C 288.573,135.973 287.906,134.973 286.5,134.5C 285.833,134.5 285.5,134.167 285.5,133.5C 285.34,131.847 284.674,130.514 283.5,129.5C 282.236,127.228 282.402,124.895 284,122.5C 287.923,118.798 292.09,115.464 296.5,112.5C 298.424,112.289 298.757,111.623 297.5,110.5C 295.425,106.526 294.425,102.192 294.5,97.5C 294.5,96.1667 294.5,94.8333 294.5,93.5C 292.5,93.5 290.5,93.5 288.5,93.5C 275.978,94.4744 271.145,88.8077 274,76.5C 274.573,72.1523 275.24,67.819 276,63.5C 276.278,62.5842 276.778,61.9175 277.5,61.5C 278.5,61.1667 279.167,60.5 279.5,59.5C 279.611,58.8826 279.944,58.3826 280.5,58C 286.798,57.3001 292.964,57.8001 299,59.5C 301.029,55.4204 303.529,51.7537 306.5,48.5C 307.906,48.0269 308.573,47.0269 308.5,45.5C 308.5,44.8333 308.5,44.1667 308.5,43.5C 308.573,41.9731 307.906,40.9731 306.5,40.5C 296.83,32.5722 297.163,25.2389 307.5,18.5C 309.027,18.573 310.027,17.9063 310.5,16.5C 310.5,15.8333 310.833,15.5 311.5,15.5C 313.027,15.573 314.027,14.9063 314.5,13.5C 314.5,12.8333 314.833,12.5 315.5,12.5C 317.027,12.573 318.027,11.9063 318.5,10.5C 320.966,9.36594 323.633,9.19927 326.5,10C 327.942,10.3768 328.942,11.2101 329.5,12.5C 329.427,14.0269 330.094,15.0269 331.5,15.5C 332.167,15.5 332.5,15.8333 332.5,16.5C 332.427,18.0269 333.094,19.0269 334.5,19.5C 335.167,19.5 335.5,19.8333 335.5,20.5C 335.427,22.0269 336.094,23.0269 337.5,23.5C 343.044,21.8581 348.71,20.8581 354.5,20.5C 356.308,19.0821 356.975,17.0821 356.5,14.5C 356.194,11.6146 356.527,8.9479 357.5,6.5C 358.674,5.48631 359.34,4.15298 359.5,2.5C 360.306,1.27187 361.306,0.271873 362.5,-0.5 Z M 391.5,106.5 C 390.094,106.973 389.427,107.973 389.5,109.5C 386.474,112.195 383.474,114.862 380.5,117.5C 378.973,117.427 377.973,118.094 377.5,119.5C 364.996,124.274 352.996,123.274 341.5,116.5C 341.027,115.094 340.027,114.427 338.5,114.5C 337.833,113.167 336.833,112.167 335.5,111.5C 335.573,109.973 334.906,108.973 333.5,108.5C 326.325,96.2021 325.658,83.5355 331.5,70.5C 332.906,70.0269 333.573,69.0269 333.5,67.5C 334.167,67.5 334.5,67.1667 334.5,66.5C 336.833,64.8333 338.833,62.8333 340.5,60.5C 359.935,48.9005 376.769,51.9005 391,69.5C 398.158,81.7476 398.325,94.0809 391.5,106.5 Z"/></g>
<g><path style="opacity:0.414" fill="#000000" d="M 359.5,2.5 C 359.34,4.15298 358.674,5.48631 357.5,6.5C 357.229,4.6203 357.896,3.28696 359.5,2.5 Z"/></g>
<g><path style="opacity:0.382" fill="#000000" d="M 318.5,10.5 C 318.027,11.9063 317.027,12.573 315.5,12.5C 315.973,11.0937 316.973,10.427 318.5,10.5 Z"/></g>
<g><path style="opacity:0.343" fill="#000000" d="M 329.5,12.5 C 330.906,12.9731 331.573,13.9731 331.5,15.5C 330.094,15.0269 329.427,14.0269 329.5,12.5 Z"/></g>
<g><path style="opacity:0.367" fill="#000000" d="M 314.5,13.5 C 314.027,14.9063 313.027,15.573 311.5,15.5C 311.973,14.0937 312.973,13.427 314.5,13.5 Z"/></g>
<g><path style="opacity:0.382" fill="#000000" d="M 356.5,14.5 C 356.975,17.0821 356.308,19.0821 354.5,20.5C 355.048,18.3736 355.715,16.3736 356.5,14.5 Z"/></g>
<g><path style="opacity:0.343" fill="#000000" d="M 310.5,16.5 C 310.027,17.9063 309.027,18.573 307.5,18.5C 307.973,17.0937 308.973,16.427 310.5,16.5 Z"/></g>
<g><path style="opacity:0.363" fill="#000000" d="M 332.5,16.5 C 333.906,16.9731 334.573,17.9731 334.5,19.5C 333.094,19.0269 332.427,18.0269 332.5,16.5 Z"/></g>
<g><path style="opacity:1" fill="#f1f1f1" d="M 264.5,34.5 C 262.973,34.427 261.973,35.0937 261.5,36.5C 258.471,39.859 255.471,43.1924 252.5,46.5C 250.958,47.3007 249.292,47.634 247.5,47.5C 215.466,46.9978 186.799,56.3311 161.5,75.5C 159.596,75.7376 158.262,76.7376 157.5,78.5C 154.833,81.8333 151.833,84.8333 148.5,87.5C 146.738,88.2623 145.738,89.5956 145.5,91.5C 145.167,92.5 144.5,93.1667 143.5,93.5C 142.094,93.9731 141.427,94.9731 141.5,96.5C 139.735,99.7089 137.735,102.709 135.5,105.5C 134.094,105.973 133.427,106.973 133.5,108.5C 125.505,124.652 120.005,141.652 117,159.5C 100.273,162.223 84.1066,166.89 68.5,173.5C 66.9731,173.427 65.9731,174.094 65.5,175.5C 65.1583,176.338 64.4916,176.672 63.5,176.5C 61.9731,176.427 60.9731,177.094 60.5,178.5C 59.0552,180.063 57.3885,181.396 55.5,182.5C 53.9731,182.427 52.9731,183.094 52.5,184.5C 51.1667,186.5 49.5,188.167 47.5,189.5C 46.0937,189.973 45.427,190.973 45.5,192.5C 30.7706,213.208 26.9373,235.874 34,260.5C 36.5554,267.348 39.3888,274.014 42.5,280.5C 42.427,282.027 43.0937,283.027 44.5,283.5C 44.427,285.027 45.0937,286.027 46.5,286.5C 47.1667,286.5 47.5,286.833 47.5,287.5C 47.7376,289.404 48.7376,290.738 50.5,291.5C 53.5,293.833 56.1667,296.5 58.5,299.5C 58.9731,300.906 59.9731,301.573 61.5,301.5C 69.2381,306.87 77.5715,310.87 86.5,313.5C 87.475,323.751 87.8083,334.085 87.5,344.5C 86.5,344.5 85.5,344.5 84.5,344.5C 70.8804,342.411 58.5471,337.411 47.5,329.5C 47.0269,328.094 46.0269,327.427 44.5,327.5C 43.8333,327.5 43.5,327.167 43.5,326.5C 43.0269,325.094 42.0269,324.427 40.5,324.5C 39.5,324.167 38.8333,323.5 38.5,322.5C 37.0892,320.086 35.0892,318.419 32.5,317.5C 31.5,317.167 30.8333,316.5 30.5,315.5C 29.9202,313.251 28.5869,311.585 26.5,310.5C 25.5,310.167 24.8333,309.5 24.5,308.5C 24.573,306.973 23.9063,305.973 22.5,305.5C 21.8333,305.5 21.5,305.167 21.5,304.5C 21.573,302.973 20.9063,301.973 19.5,301.5C 8.7234,286.509 2.05673,269.842 -0.5,251.5C -0.5,241.833 -0.5,232.167 -0.5,222.5C 1.73402,208.132 6.73402,194.798 14.5,182.5C 15.9063,182.027 16.573,181.027 16.5,179.5C 17.9063,179.027 18.573,178.027 18.5,176.5C 18.5,175.833 18.8333,175.5 19.5,175.5C 20.9063,175.027 21.573,174.027 21.5,172.5C 22.1667,171.167 23.1667,170.167 24.5,169.5C 27.8333,166.833 30.8333,163.833 33.5,160.5C 49.4448,146.196 68.1115,137.196 89.5,133.5C 90.8333,133.5 91.5,132.833 91.5,131.5C 94.3089,117.895 99.3089,105.229 106.5,93.5C 107.906,93.0269 108.573,92.0269 108.5,90.5C 108.328,89.5084 108.662,88.8417 109.5,88.5C 110.906,88.0269 111.573,87.0269 111.5,85.5C 111.427,83.9731 112.094,82.9731 113.5,82.5C 114.906,82.0269 115.573,81.0269 115.5,79.5C 116.124,77.246 117.457,75.5794 119.5,74.5C 120.906,74.0269 121.573,73.0269 121.5,71.5C 122.167,70.1667 123.167,69.1667 124.5,68.5C 126.914,67.0892 128.581,65.0892 129.5,62.5C 130.167,61.1667 131.167,60.1667 132.5,59.5C 134.749,58.9202 136.415,57.5869 137.5,55.5C 138.5,53.8333 139.833,52.5 141.5,51.5C 143.027,51.573 144.027,50.9063 144.5,49.5C 144.5,48.8333 144.833,48.5 145.5,48.5C 147.027,48.573 148.027,47.9063 148.5,46.5C 149.436,45.0256 150.77,44.0256 152.5,43.5C 154.027,43.573 155.027,42.9063 155.5,41.5C 157.336,39.412 159.669,38.0787 162.5,37.5C 164.027,37.573 165.027,36.9063 165.5,35.5C 199.41,17.1427 235.076,12.1427 272.5,20.5C 271.738,24.1111 271.238,27.7778 271,31.5C 269.007,32.914 266.84,33.914 264.5,34.5 Z"/></g>
<g><path style="opacity:0.391" fill="#000000" d="M 335.5,20.5 C 336.906,20.9731 337.573,21.9731 337.5,23.5C 336.094,23.0269 335.427,22.0269 335.5,20.5 Z"/></g>
<g><path style="opacity:0.389" fill="#000000" d="M 425.5,27.5 C 427.5,27.5 428.5,28.5 428.5,30.5C 427.167,29.8333 426.167,28.8333 425.5,27.5 Z"/></g>
<g><path style="opacity:0.298" fill="#101010" d="M 399.5,31.5 C 401.027,31.427 402.027,32.0937 402.5,33.5C 400.973,33.573 399.973,32.9063 399.5,31.5 Z"/></g>
<g><path style="opacity:0.922" fill="#3c3c3c" d="M 412.5,30.5 C 412.027,31.9063 411.027,32.573 409.5,32.5C 409.973,31.0937 410.973,30.427 412.5,30.5 Z"/></g>
<g><path style="opacity:0.397" fill="#000000" d="M 429.5,31.5 C 430.906,31.9731 431.573,32.9731 431.5,34.5C 430.094,34.0269 429.427,33.0269 429.5,31.5 Z"/></g>
<g><path style="opacity:0.436" fill="#000000" d="M 408.5,33.5 C 407.685,34.8366 406.518,35.8366 405,36.5C 404.283,35.9558 403.783,35.2891 403.5,34.5C 405.216,34.3713 406.883,34.038 408.5,33.5 Z"/></g>
<g><path style="opacity:0.384" fill="#000000" d="M 264.5,34.5 C 264.027,35.9063 263.027,36.573 261.5,36.5C 261.973,35.0937 262.973,34.427 264.5,34.5 Z"/></g>
<g><path style="opacity:0.922" fill="#3c3c3c" d="M 165.5,35.5 C 165.027,36.9063 164.027,37.573 162.5,37.5C 162.973,36.0937 163.973,35.427 165.5,35.5 Z"/></g>
<g><path style="opacity:0.345" fill="#212121" d="M 432.5,35.5 C 433.906,35.9731 434.573,36.9731 434.5,38.5C 433.094,38.0269 432.427,37.0269 432.5,35.5 Z"/></g>
<g><path style="opacity:0.397" fill="#000000" d="M 306.5,40.5 C 307.906,40.9731 308.573,41.9731 308.5,43.5C 307.094,43.0269 306.427,42.0269 306.5,40.5 Z"/></g>
<g><path style="opacity:0.357" fill="#000000" d="M 155.5,41.5 C 155.027,42.9063 154.027,43.573 152.5,43.5C 152.973,42.0937 153.973,41.427 155.5,41.5 Z"/></g>
<g><path style="opacity:0.394" fill="#000000" d="M 308.5,45.5 C 308.573,47.0269 307.906,48.0269 306.5,48.5C 306.427,46.9731 307.094,45.9731 308.5,45.5 Z"/></g>
<g><path style="opacity:0.389" fill="#000000" d="M 148.5,46.5 C 148.027,47.9063 147.027,48.573 145.5,48.5C 145.973,47.0937 146.973,46.427 148.5,46.5 Z"/></g>
<g><path style="opacity:0.186" fill="#000000" d="M 252.5,46.5 C 252.209,47.6491 251.376,48.3158 250,48.5C 248.93,48.472 248.097,48.1386 247.5,47.5C 248.097,48.1386 248.93,48.472 250,48.5C 251.376,48.3158 252.209,47.6491 252.5,46.5 Z"/></g>
<g><path style="opacity:0.332" fill="#000000" d="M 144.5,49.5 C 144.027,50.9063 143.027,51.573 141.5,51.5C 141.973,50.0937 142.973,49.427 144.5,49.5 Z"/></g>
<g><path style="opacity:0.393" fill="#0b0b0b" d="M 137.5,55.5 C 136.415,57.5869 134.749,58.9202 132.5,59.5C 133.585,57.4131 135.251,56.0798 137.5,55.5 Z"/></g>
<g><path style="opacity:0.343" fill="#000000" d="M 436.5,56.5 C 436.027,57.9063 435.027,58.573 433.5,58.5C 433.973,57.0937 434.973,56.427 436.5,56.5 Z"/></g>
<g><path style="opacity:0.437" fill="#000000" d="M 279.5,59.5 C 279.167,60.5 278.5,61.1667 277.5,61.5C 277.5,60.1667 278.167,59.5 279.5,59.5 Z"/></g>
<g><path style="opacity:0.363" fill="#000000" d="M 432.5,59.5 C 432.027,60.9063 431.027,61.573 429.5,61.5C 429.973,60.0937 430.973,59.427 432.5,59.5 Z"/></g>
<g><path style="opacity:0.359" fill="#040404" d="M 340.5,60.5 C 338.833,62.8333 336.833,64.8333 334.5,66.5C 335.5,63.5 337.5,61.5 340.5,60.5 Z"/></g>
<g><path style="opacity:0.363" fill="#000000" d="M 428.5,62.5 C 427.4,63.6049 426.733,64.9382 426.5,66.5C 425.024,64.2911 425.691,62.9577 428.5,62.5 Z"/></g>
<g><path style="opacity:0.855" fill="#242424" d="M 129.5,62.5 C 128.581,65.0892 126.914,67.0892 124.5,68.5C 125.419,65.9108 127.086,63.9108 129.5,62.5 Z"/></g>
<g><path style="opacity:0.372" fill="#000000" d="M 333.5,67.5 C 333.573,69.0269 332.906,70.0269 331.5,70.5C 331.427,68.9731 332.094,67.9731 333.5,67.5 Z"/></g>
<g><path style="opacity:0.392" fill="#000000" d="M 121.5,71.5 C 121.573,73.0269 120.906,74.0269 119.5,74.5C 119.427,72.9731 120.094,71.9731 121.5,71.5 Z"/></g>
<g><path style="opacity:0.343" fill="#070707" d="M 161.5,75.5 C 160.738,77.2624 159.404,78.2624 157.5,78.5C 158.262,76.7376 159.596,75.7376 161.5,75.5 Z"/></g>
<g><path style="opacity:0.855" fill="#1c1c1c" d="M 115.5,79.5 C 115.573,81.0269 114.906,82.0269 113.5,82.5C 113.427,80.9731 114.094,79.9731 115.5,79.5 Z"/></g>
<g><path style="opacity:0.855" fill="#1c1c1c" d="M 111.5,85.5 C 111.573,87.0269 110.906,88.0269 109.5,88.5C 109.427,86.9731 110.094,85.9731 111.5,85.5 Z"/></g>
<g><path style="opacity:0.373" fill="#000000" d="M 148.5,87.5 C 148.262,89.4044 147.262,90.7377 145.5,91.5C 145.738,89.5956 146.738,88.2623 148.5,87.5 Z"/></g>
<g><path style="opacity:0.855" fill="#1c1c1c" d="M 108.5,90.5 C 108.573,92.0269 107.906,93.0269 106.5,93.5C 106.427,91.9731 107.094,90.9731 108.5,90.5 Z"/></g>
<g><path style="opacity:0.391" fill="#000000" d="M 143.5,93.5 C 143.573,95.0269 142.906,96.0269 141.5,96.5C 141.427,94.9731 142.094,93.9731 143.5,93.5 Z"/></g>
<g><path style="opacity:0.316" fill="#000000" d="M 288.5,93.5 C 290.5,93.5 292.5,93.5 294.5,93.5C 294.5,94.8333 294.5,96.1667 294.5,97.5C 293.596,96.791 293.263,95.791 293.5,94.5C 291.585,94.7845 289.919,94.4511 288.5,93.5 Z"/></g>
<g><path style="opacity:0.216" fill="#101010" d="M 135.5,105.5 C 135.573,107.027 134.906,108.027 133.5,108.5C 133.427,106.973 134.094,105.973 135.5,105.5 Z"/></g>
<g><path style="opacity:0.389" fill="#000000" d="M 391.5,106.5 C 391.573,108.027 390.906,109.027 389.5,109.5C 389.427,107.973 390.094,106.973 391.5,106.5 Z"/></g>
<g><path style="opacity:0.397" fill="#000000" d="M 333.5,108.5 C 334.906,108.973 335.573,109.973 335.5,111.5C 334.094,111.027 333.427,110.027 333.5,108.5 Z"/></g>
<g><path style="opacity:0.539" fill="#000000" d="M 297.5,110.5 C 298.757,111.623 298.424,112.289 296.5,112.5C 296.833,111.833 297.167,111.167 297.5,110.5 Z"/></g>
<g><path style="opacity:0.415" fill="#000000" d="M 338.5,114.5 C 340.027,114.427 341.027,115.094 341.5,116.5C 339.973,116.573 338.973,115.906 338.5,114.5 Z"/></g>
<g><path style="opacity:0.408" fill="#000000" d="M 429.5,117.5 C 427.05,117.298 424.717,117.631 422.5,118.5C 423.152,117.275 424.319,116.608 426,116.5C 427.385,116.514 428.551,116.848 429.5,117.5 Z"/></g>
<g><path style="opacity:0.855" fill="#1c1c1c" d="M 380.5,117.5 C 380.027,118.906 379.027,119.573 377.5,119.5C 377.973,118.094 378.973,117.427 380.5,117.5 Z"/></g>
<g><path style="opacity:1" fill="#f1f1f1" d="M 479.5,134.5 C 479.738,136.404 480.738,137.738 482.5,138.5C 483.5,138.833 484.167,139.5 484.5,140.5C 484.427,142.027 485.094,143.027 486.5,143.5C 487.167,143.5 487.5,143.833 487.5,144.5C 487.427,146.027 488.094,147.027 489.5,147.5C 491.95,149.629 493.617,152.296 494.5,155.5C 494.427,157.027 495.094,158.027 496.5,158.5C 504.325,173.641 509.325,189.641 511.5,206.5C 511.5,217.833 511.5,229.167 511.5,240.5C 509.344,258.136 503.844,274.803 495,290.5C 494.051,292.093 492.885,293.426 491.5,294.5C 490.094,294.973 489.427,295.973 489.5,297.5C 489.5,298.167 489.167,298.5 488.5,298.5C 487.094,298.973 486.427,299.973 486.5,301.5C 482.5,306.167 478.167,310.5 473.5,314.5C 471.973,314.427 470.973,315.094 470.5,316.5C 470.167,317.5 469.5,318.167 468.5,318.5C 466.973,318.427 465.973,319.094 465.5,320.5C 463.853,322.326 461.853,323.66 459.5,324.5C 457.973,324.427 456.973,325.094 456.5,326.5C 445.734,333.377 434.067,338.377 421.5,341.5C 420.506,331.013 420.172,320.346 420.5,309.5C 430.085,305.04 439.418,300.04 448.5,294.5C 450.027,294.573 451.027,293.906 451.5,292.5C 451.833,291.5 452.5,290.833 453.5,290.5C 457.167,288.833 459.833,286.167 461.5,282.5C 463.177,280.46 464.844,278.46 466.5,276.5C 467.906,276.027 468.573,275.027 468.5,273.5C 482.628,243.855 484.128,213.522 473,182.5C 469.594,174.684 465.428,167.35 460.5,160.5C 460.573,158.973 459.906,157.973 458.5,157.5C 452.943,154.804 451.11,150.47 453,144.5C 455.448,143.027 457.948,141.693 460.5,140.5C 462.027,140.573 463.027,139.906 463.5,138.5C 464.5,136.833 465.833,135.5 467.5,134.5C 468.906,134.027 469.573,133.027 469.5,131.5C 470.016,129.8 471.016,128.467 472.5,127.5C 475.188,129.521 477.521,131.854 479.5,134.5 Z"/></g>
<g><path style="opacity:0.431" fill="#000000" d="M 283.5,129.5 C 284.674,130.514 285.34,131.847 285.5,133.5C 283.896,132.713 283.229,131.38 283.5,129.5 Z"/></g>
<g><path style="opacity:0.251" fill="#000000" d="M 91.5,131.5 C 91.5,132.833 90.8333,133.5 89.5,133.5C 89.8333,132.5 90.5,131.833 91.5,131.5 Z"/></g>
<g><path style="opacity:0.346" fill="#000000" d="M 469.5,131.5 C 469.573,133.027 468.906,134.027 467.5,134.5C 467.427,132.973 468.094,131.973 469.5,131.5 Z"/></g>
<g><path style="opacity:0.367" fill="#000000" d="M 286.5,134.5 C 287.906,134.973 288.573,135.973 288.5,137.5C 287.094,137.027 286.427,136.027 286.5,134.5 Z"/></g>
<g><path style="opacity:0.388" fill="#000000" d="M 479.5,134.5 C 481.262,135.262 482.262,136.596 482.5,138.5C 480.738,137.738 479.738,136.404 479.5,134.5 Z"/></g>
<g><path style="opacity:0.347" fill="#000000" d="M 289.5,138.5 C 290.906,138.973 291.573,139.973 291.5,141.5C 290.094,141.027 289.427,140.027 289.5,138.5 Z"/></g>
<g><path style="opacity:0.343" fill="#000000" d="M 419.5,138.5 C 420.906,138.973 421.573,139.973 421.5,141.5C 420.094,141.027 419.427,140.027 419.5,138.5 Z"/></g>
<g><path style="opacity:0.346" fill="#000000" d="M 463.5,138.5 C 463.027,139.906 462.027,140.573 460.5,140.5C 460.973,139.094 461.973,138.427 463.5,138.5 Z"/></g>
<g><path style="opacity:0.363" fill="#212121" d="M 484.5,140.5 C 485.906,140.973 486.573,141.973 486.5,143.5C 485.094,143.027 484.427,142.027 484.5,140.5 Z"/></g>
<g><path style="opacity:0.32" fill="#212121" d="M 487.5,144.5 C 488.906,144.973 489.573,145.973 489.5,147.5C 488.094,147.027 487.427,146.027 487.5,144.5 Z"/></g>
<g><path style="opacity:0.358" fill="#000000" d="M 421.5,153.5 C 421.027,154.906 420.027,155.573 418.5,155.5C 418.973,154.094 419.973,153.427 421.5,153.5 Z"/></g>
<g><path style="opacity:0.184" fill="#000000" d="M 370.5,155.5 C 369.5,156.5 368.5,157.5 367.5,158.5C 367.5,157.5 367.5,156.5 367.5,155.5C 368.5,155.5 369.5,155.5 370.5,155.5 Z"/></g>
<g><path style="opacity:0.386" fill="#000000" d="M 417.5,156.5 C 417.027,157.906 416.027,158.573 414.5,158.5C 414.973,157.094 415.973,156.427 417.5,156.5 Z"/></g>
<g><path style="opacity:0.216" fill="#212121" d="M 494.5,155.5 C 495.906,155.973 496.573,156.973 496.5,158.5C 495.094,158.027 494.427,157.027 494.5,155.5 Z"/></g>
<g><path style="opacity:0.377" fill="#000000" d="M 458.5,157.5 C 459.906,157.973 460.573,158.973 460.5,160.5C 459.094,160.027 458.427,159.027 458.5,157.5 Z"/></g>
<g><path style="opacity:0.403" fill="#000000" d="M 33.5,160.5 C 30.8333,163.833 27.8333,166.833 24.5,169.5C 26.5,165.5 29.5,162.5 33.5,160.5 Z"/></g>
<g><path style="opacity:0.335" fill="#090909" d="M 413.5,159.5 C 413.027,160.906 412.027,161.573 410.5,161.5C 410.973,160.094 411.973,159.427 413.5,159.5 Z"/></g>
<g><path style="opacity:0.416" fill="#000000" d="M 393.5,162.5 C 394.833,163.167 395.833,164.167 396.5,165.5C 394.5,165.5 393.5,164.5 393.5,162.5 Z"/></g>
<g><path style="opacity:0.402" fill="#080808" d="M 332.5,169.5 C 333.833,170.167 334.833,171.167 335.5,172.5C 333.5,172.5 332.5,171.5 332.5,169.5 Z"/></g>
<g><path style="opacity:0.353" fill="#000000" d="M 365.5,171.5 C 365.167,173.833 363.833,175.167 361.5,175.5C 362.5,173.833 363.833,172.5 365.5,171.5 Z"/></g>
<g><path style="opacity:0.392" fill="#000000" d="M 21.5,172.5 C 21.573,174.027 20.9063,175.027 19.5,175.5C 19.427,173.973 20.0937,172.973 21.5,172.5 Z"/></g>
<g><path style="opacity:0.204" fill="#090909" d="M 68.5,173.5 C 68.0269,174.906 67.0269,175.573 65.5,175.5C 65.9731,174.094 66.9731,173.427 68.5,173.5 Z"/></g>
<g><path style="opacity:0.367" fill="#000000" d="M 18.5,176.5 C 18.573,178.027 17.9063,179.027 16.5,179.5C 16.427,177.973 17.0937,176.973 18.5,176.5 Z"/></g>
<g><path style="opacity:0.253" fill="#090909" d="M 63.5,176.5 C 63.0269,177.906 62.0269,178.573 60.5,178.5C 60.9731,177.094 61.9731,176.427 63.5,176.5 Z"/></g>
<g><path style="opacity:0.37" fill="#000000" d="M 16.5,179.5 C 16.573,181.027 15.9063,182.027 14.5,182.5C 14.427,180.973 15.0937,179.973 16.5,179.5 Z"/></g>
<g><path style="opacity:0.373" fill="#000000" d="M 55.5,182.5 C 55.0269,183.906 54.0269,184.573 52.5,184.5C 52.9731,183.094 53.9731,182.427 55.5,182.5 Z"/></g>
<g><path style="opacity:0.382" fill="#000000" d="M 47.5,189.5 C 47.573,191.027 46.9063,192.027 45.5,192.5C 45.427,190.973 46.0937,189.973 47.5,189.5 Z"/></g>
<g><path style="opacity:0.39" fill="#000000" d="M 168.5,211.5 C 153.5,211.5 138.5,211.5 123.5,211.5C 123.5,234.167 123.5,256.833 123.5,279.5C 130.5,279.5 137.5,279.5 144.5,279.5C 137.352,280.492 130.019,280.825 122.5,280.5C 122.5,257.167 122.5,233.833 122.5,210.5C 138.009,210.17 153.342,210.504 168.5,211.5 Z"/></g>
<g><path style="opacity:0.382" fill="#000000" d="M 216.5,236.5 C 215.518,233.038 215.185,229.371 215.5,225.5C 227.5,225.5 239.5,225.5 251.5,225.5C 251.5,220.833 251.5,216.167 251.5,211.5C 232.833,211.5 214.167,211.5 195.5,211.5C 195.5,234.167 195.5,256.833 195.5,279.5C 214.5,279.5 233.5,279.5 252.5,279.5C 252.5,274.5 252.5,269.5 252.5,264.5C 240.167,264.5 227.833,264.5 215.5,264.5C 215.5,259.833 215.5,255.167 215.5,250.5C 226.5,250.5 237.5,250.5 248.5,250.5C 248.5,245.833 248.5,241.167 248.5,236.5C 249.487,241.305 249.821,246.305 249.5,251.5C 238.5,251.5 227.5,251.5 216.5,251.5C 216.5,255.5 216.5,259.5 216.5,263.5C 228.833,263.5 241.167,263.5 253.5,263.5C 253.5,269.167 253.5,274.833 253.5,280.5C 233.833,280.5 214.167,280.5 194.5,280.5C 194.5,257.167 194.5,233.833 194.5,210.5C 213.833,210.5 233.167,210.5 252.5,210.5C 252.5,215.833 252.5,221.167 252.5,226.5C 240.5,226.5 228.5,226.5 216.5,226.5C 216.5,229.833 216.5,233.167 216.5,236.5 Z"/></g>
<g><path style="opacity:1" fill="#e5e5e5" d="M 309.5,214.5 C 310.5,216.167 311.833,217.5 313.5,218.5C 316.165,220.835 317.498,223.835 317.5,227.5C 317.443,228.609 317.11,229.609 316.5,230.5C 310.176,231.707 303.843,231.707 297.5,230.5C 294.632,223.666 289.632,221.666 282.5,224.5C 279.92,226.713 279.92,228.88 282.5,231C 292.931,233.106 302.931,236.44 312.5,241C 321.434,249.535 322.767,259.035 316.5,269.5C 315.094,269.973 314.427,270.973 314.5,272.5C 314.5,273.167 314.167,273.5 313.5,273.5C 311.973,273.427 310.973,274.094 310.5,275.5C 309.251,277.136 307.584,278.303 305.5,279C 294.505,282.279 283.505,282.279 272.5,279C 264.367,275.883 259.7,270.049 258.5,261.5C 258.5,260.167 258.5,258.833 258.5,257.5C 259.791,257.737 260.791,257.404 261.5,256.5C 262.5,256.5 263.5,256.5 264.5,256.5C 269.263,256.226 273.93,256.559 278.5,257.5C 279.441,259.05 280.107,260.716 280.5,262.5C 280.5,263.833 281.167,264.5 282.5,264.5C 287.911,267.435 293.078,267.101 298,263.5C 298.495,261.527 298.662,259.527 298.5,257.5C 298.5,255.5 297.5,254.5 295.5,254.5C 288.852,252.671 282.185,250.837 275.5,249C 273.273,248.059 271.273,246.892 269.5,245.5C 269.027,244.094 268.027,243.427 266.5,243.5C 260.316,238.105 258.483,231.438 261,223.5C 261.697,221.416 262.864,219.749 264.5,218.5C 265.833,217.833 266.833,216.833 267.5,215.5C 269.428,213.526 271.761,212.026 274.5,211C 285.269,208.739 295.935,209.072 306.5,212C 307.942,212.377 308.942,213.21 309.5,214.5 Z"/></g>
<g><path style="opacity:0.496" fill="#000000" d="M 322.5,210.5 C 344.5,210.5 366.5,210.5 388.5,210.5C 388.5,216.5 388.5,222.5 388.5,228.5C 381.167,228.5 373.833,228.5 366.5,228.5C 366.5,245.833 366.5,263.167 366.5,280.5C 359.167,280.5 351.833,280.5 344.5,280.5C 344.5,263.167 344.5,245.833 344.5,228.5C 337.167,228.5 329.833,228.5 322.5,228.5C 322.5,222.5 322.5,216.5 322.5,210.5 Z"/></g>
<g><path style="opacity:1" fill="#f4f4f4" d="M 168.5,211.5 C 173.41,211.241 177.41,212.907 180.5,216.5C 180.427,218.027 181.094,219.027 182.5,219.5C 184.782,222.524 185.782,226.024 185.5,230C 185.782,233.976 184.782,237.476 182.5,240.5C 181.094,240.973 180.427,241.973 180.5,243.5C 180.5,244.167 180.167,244.5 179.5,244.5C 177.973,244.427 176.973,245.094 176.5,246.5C 175.22,247.931 173.553,248.598 171.5,248.5C 167.711,248.737 167.711,249.404 171.5,250.5C 172.492,250.328 173.158,250.662 173.5,251.5C 174.5,253.167 175.833,254.5 177.5,255.5C 178.167,255.5 178.5,255.833 178.5,256.5C 178.427,258.027 179.094,259.027 180.5,259.5C 183.341,263.849 185.674,268.516 187.5,273.5C 187.427,275.027 188.094,276.027 189.5,276.5C 190.338,276.842 190.672,277.508 190.5,278.5C 182.684,279.492 174.684,279.826 166.5,279.5C 162.74,274.316 159.74,268.65 157.5,262.5C 157.573,260.973 156.906,259.973 155.5,259.5C 153.672,254.413 150.005,252.079 144.5,252.5C 144.5,261.5 144.5,270.5 144.5,279.5C 137.5,279.5 130.5,279.5 123.5,279.5C 123.5,256.833 123.5,234.167 123.5,211.5C 138.5,211.5 153.5,211.5 168.5,211.5 Z M 144.5,225.5 C 149.511,225.334 154.511,225.501 159.5,226C 164.833,229.667 164.833,233.333 159.5,237C 154.58,238.25 149.58,238.75 144.5,238.5C 144.5,234.167 144.5,229.833 144.5,225.5 Z"/></g>
<g><path style="opacity:1" fill="#fefffe" d="M 216.5,236.5 C 227.167,236.5 237.833,236.5 248.5,236.5C 248.5,241.167 248.5,245.833 248.5,250.5C 237.5,250.5 226.5,250.5 215.5,250.5C 215.5,255.167 215.5,259.833 215.5,264.5C 227.833,264.5 240.167,264.5 252.5,264.5C 252.5,269.5 252.5,274.5 252.5,279.5C 233.5,279.5 214.5,279.5 195.5,279.5C 195.5,256.833 195.5,234.167 195.5,211.5C 214.167,211.5 232.833,211.5 251.5,211.5C 251.5,216.167 251.5,220.833 251.5,225.5C 239.5,225.5 227.5,225.5 215.5,225.5C 215.185,229.371 215.518,233.038 216.5,236.5 Z"/></g>
<g><path style="opacity:1" fill="#fefffe" d="M 323.5,211.5 C 344.833,211.5 366.167,211.5 387.5,211.5C 387.5,216.833 387.5,222.167 387.5,227.5C 380.167,227.5 372.833,227.5 365.5,227.5C 365.5,244.833 365.5,262.167 365.5,279.5C 358.833,279.5 352.167,279.5 345.5,279.5C 345.5,262.167 345.5,244.833 345.5,227.5C 338.167,227.5 330.833,227.5 323.5,227.5C 323.5,222.167 323.5,216.833 323.5,211.5 Z"/></g>
<g><path style="opacity:0.427" fill="#000000" d="M 309.5,214.5 C 311.833,214.833 313.167,216.167 313.5,218.5C 311.833,217.5 310.5,216.167 309.5,214.5 Z"/></g>
<g><path style="opacity:0.417" fill="#000000" d="M 267.5,215.5 C 266.833,216.833 265.833,217.833 264.5,218.5C 264.5,216.5 265.5,215.5 267.5,215.5 Z"/></g>
<g><path style="opacity:0.32" fill="#111111" d="M 180.5,216.5 C 181.906,216.973 182.573,217.973 182.5,219.5C 181.094,219.027 180.427,218.027 180.5,216.5 Z"/></g>
<g><path style="opacity:0.316" fill="#000000" d="M 317.5,227.5 C 318.885,228.947 318.552,229.947 316.5,230.5C 317.11,229.609 317.443,228.609 317.5,227.5 Z"/></g>
<g><path style="opacity:0.345" fill="#000000" d="M 182.5,240.5 C 182.573,242.027 181.906,243.027 180.5,243.5C 180.427,241.973 181.094,240.973 182.5,240.5 Z"/></g>
<g><path style="opacity:0.361" fill="#000000" d="M 266.5,243.5 C 268.027,243.427 269.027,244.094 269.5,245.5C 267.973,245.573 266.973,244.906 266.5,243.5 Z"/></g>
<g><path style="opacity:0.333" fill="#000000" d="M 179.5,244.5 C 179.027,245.906 178.027,246.573 176.5,246.5C 176.973,245.094 177.973,244.427 179.5,244.5 Z"/></g>
<g><path style="opacity:0.467" fill="#000000" d="M 171.5,248.5 C 171.5,249.167 171.5,249.833 171.5,250.5C 167.711,249.404 167.711,248.737 171.5,248.5 Z"/></g>
<g><path style="opacity:0.389" fill="#000000" d="M 173.5,251.5 C 175.833,251.833 177.167,253.167 177.5,255.5C 175.833,254.5 174.5,253.167 173.5,251.5 Z"/></g>
<g><path style="opacity:0.352" fill="#000000" d="M 295.5,254.5 C 297.5,254.5 298.5,255.5 298.5,257.5C 297.167,256.833 296.167,255.833 295.5,254.5 Z"/></g>
<g><path style="opacity:0.452" fill="#000000" d="M 264.5,256.5 C 266.641,255.837 268.975,255.503 271.5,255.5C 274.269,255.529 276.603,256.195 278.5,257.5C 273.93,256.559 269.263,256.226 264.5,256.5 Z"/></g>
<g><path style="opacity:0.37" fill="#000000" d="M 178.5,256.5 C 179.906,256.973 180.573,257.973 180.5,259.5C 179.094,259.027 178.427,258.027 178.5,256.5 Z"/></g>
<g><path style="opacity:0.519" fill="#000000" d="M 261.5,256.5 C 260.791,257.404 259.791,257.737 258.5,257.5C 258.5,258.833 258.5,260.167 258.5,261.5C 257.549,260.081 257.216,258.415 257.5,256.5C 258.833,256.5 260.167,256.5 261.5,256.5 Z"/></g>
<g><path style="opacity:0.194" fill="#101010" d="M 155.5,259.5 C 156.906,259.973 157.573,260.973 157.5,262.5C 156.094,262.027 155.427,261.027 155.5,259.5 Z"/></g>
<g><path style="opacity:0.922" fill="#444444" d="M 280.5,262.5 C 281.5,262.833 282.167,263.5 282.5,264.5C 281.167,264.5 280.5,263.833 280.5,262.5 Z"/></g>
<g><path style="opacity:0.358" fill="#000000" d="M 316.5,269.5 C 316.573,271.027 315.906,272.027 314.5,272.5C 314.427,270.973 315.094,269.973 316.5,269.5 Z"/></g>
<g><path style="opacity:0.186" fill="#212121" d="M 187.5,273.5 C 188.906,273.973 189.573,274.973 189.5,276.5C 188.094,276.027 187.427,275.027 187.5,273.5 Z"/></g>
<g><path style="opacity:0.345" fill="#090909" d="M 313.5,273.5 C 313.027,274.906 312.027,275.573 310.5,275.5C 310.973,274.094 311.973,273.427 313.5,273.5 Z"/></g>
<g><path style="opacity:0.922" fill="#3c3c3c" d="M 468.5,273.5 C 468.573,275.027 467.906,276.027 466.5,276.5C 466.427,274.973 467.094,273.973 468.5,273.5 Z"/></g>
<g><path style="opacity:0.132" fill="#000000" d="M 190.5,278.5 C 191.043,278.56 191.376,278.893 191.5,279.5C 183.009,280.821 174.676,280.821 166.5,279.5C 174.684,279.826 182.684,279.492 190.5,278.5 Z"/></g>
<g><path style="opacity:0.259" fill="#212121" d="M 42.5,280.5 C 43.9063,280.973 44.573,281.973 44.5,283.5C 43.0937,283.027 42.427,282.027 42.5,280.5 Z"/></g>
<g><path style="opacity:0.363" fill="#0f0f0f" d="M 461.5,282.5 C 459.833,286.167 457.167,288.833 453.5,290.5C 455.833,287.5 458.5,284.833 461.5,282.5 Z"/></g>
<g><path style="opacity:0.32" fill="#212121" d="M 44.5,283.5 C 45.9063,283.973 46.573,284.973 46.5,286.5C 45.0937,286.027 44.427,285.027 44.5,283.5 Z"/></g>
<g><path style="opacity:0.336" fill="#1a1a1a" d="M 47.5,287.5 C 49.2624,288.262 50.2624,289.596 50.5,291.5C 48.7376,290.738 47.7376,289.404 47.5,287.5 Z"/></g>
<g><path style="opacity:0.361" fill="#000000" d="M 451.5,292.5 C 451.027,293.906 450.027,294.573 448.5,294.5C 448.973,293.094 449.973,292.427 451.5,292.5 Z"/></g>
<g><path style="opacity:0.304" fill="#101010" d="M 491.5,294.5 C 491.573,296.027 490.906,297.027 489.5,297.5C 489.427,295.973 490.094,294.973 491.5,294.5 Z"/></g>
<g><path style="opacity:0.374" fill="#000000" d="M 488.5,298.5 C 488.573,300.027 487.906,301.027 486.5,301.5C 486.427,299.973 487.094,298.973 488.5,298.5 Z"/></g>
<g><path style="opacity:0.355" fill="#101010" d="M 58.5,299.5 C 60.0269,299.427 61.0269,300.094 61.5,301.5C 59.9731,301.573 58.9731,300.906 58.5,299.5 Z"/></g>
<g><path style="opacity:0.29" fill="#101010" d="M 19.5,301.5 C 20.9063,301.973 21.573,302.973 21.5,304.5C 20.0937,304.027 19.427,303.027 19.5,301.5 Z"/></g>
<g><path style="opacity:0.761" fill="#000000" d="M 198.5,305.5 C 184.92,304.88 171.587,305.547 158.5,307.5C 158.5,306.5 158.5,305.5 158.5,304.5C 172.01,304.171 185.344,304.504 198.5,305.5 Z"/></g>
<g><path style="opacity:0.581" fill="#000000" d="M 394.5,418.5 C 382.5,418.5 370.5,418.5 358.5,418.5C 358.5,380.5 358.5,342.5 358.5,304.5C 370.5,304.5 382.5,304.5 394.5,304.5C 394.5,342.5 394.5,380.5 394.5,418.5 Z"/></g>
<g><path style="opacity:0.345" fill="#101010" d="M 22.5,305.5 C 23.9063,305.973 24.573,306.973 24.5,308.5C 23.0937,308.027 22.427,307.027 22.5,305.5 Z"/></g>
<g><path style="opacity:1" fill="#f3f3f3" d="M 198.5,305.5 C 212.562,342.019 226.229,378.686 239.5,415.5C 227.88,417.479 215.88,418.146 203.5,417.5C 201.364,411.997 199.364,406.331 197.5,400.5C 184.517,399.501 171.517,399.168 158.5,399.5C 157.204,405.05 155.537,410.383 153.5,415.5C 147.574,416.79 141.407,417.457 135,417.5C 128.99,417.499 123.157,417.166 117.5,416.5C 130.596,379.87 144.262,343.537 158.5,307.5C 171.587,305.547 184.92,304.88 198.5,305.5 Z M 177.5,336.5 C 178.167,337.167 178.833,337.833 179.5,338.5C 182.388,349.737 185.721,360.737 189.5,371.5C 189.5,372.5 189.5,373.5 189.5,374.5C 181.648,374.825 173.982,374.492 166.5,373.5C 170.771,361.354 174.437,349.021 177.5,336.5 Z"/></g>
<g><path style="opacity:1" fill="#f7f7f7" d="M 339.5,360.5 C 338.094,360.973 337.427,361.973 337.5,363.5C 331.096,371.312 322.762,375.312 312.5,375.5C 302.833,375.5 293.167,375.5 283.5,375.5C 283.5,389.5 283.5,403.5 283.5,417.5C 271.833,417.5 260.167,417.5 248.5,417.5C 248.5,379.833 248.5,342.167 248.5,304.5C 271.502,304.333 294.502,304.5 317.5,305C 333.789,307.622 342.955,317.122 345,333.5C 346.282,343.258 344.449,352.258 339.5,360.5 Z M 300.5,328.5 C 301.93,329.537 303.597,330.204 305.5,330.5C 305.833,331.5 306.5,332.167 307.5,332.5C 312.686,342.798 309.686,349.465 298.5,352.5C 293.833,352.5 289.167,352.5 284.5,352.5C 284.5,344.5 284.5,336.5 284.5,328.5C 289.833,328.5 295.167,328.5 300.5,328.5 Z"/></g>
<g><path style="opacity:1" fill="#fefffe" d="M 359.5,305.5 C 370.833,305.5 382.167,305.5 393.5,305.5C 393.5,342.833 393.5,380.167 393.5,417.5C 382.167,417.5 370.833,417.5 359.5,417.5C 359.5,380.167 359.5,342.833 359.5,305.5 Z"/></g>
<g><path style="opacity:0.377" fill="#000000" d="M 420.5,309.5 C 420.172,320.346 420.506,331.013 421.5,341.5C 421.44,342.043 421.107,342.376 420.5,342.5C 419.176,331.34 419.176,320.34 420.5,309.5 Z"/></g>
<g><path style="opacity:0.358" fill="#090909" d="M 26.5,310.5 C 28.5869,311.585 29.9202,313.251 30.5,315.5C 28.4131,314.415 27.0798,312.749 26.5,310.5 Z"/></g>
<g><path style="opacity:0.291" fill="#000000" d="M 86.5,313.5 C 88.4762,323.781 89.1428,334.448 88.5,345.5C 86.901,345.768 85.5676,345.434 84.5,344.5C 85.5,344.5 86.5,344.5 87.5,344.5C 87.8083,334.085 87.475,323.751 86.5,313.5 Z"/></g>
<g><path style="opacity:0.367" fill="#090909" d="M 473.5,314.5 C 473.027,315.906 472.027,316.573 470.5,316.5C 470.973,315.094 471.973,314.427 473.5,314.5 Z"/></g>
<g><path style="opacity:0.345" fill="#000000" d="M 468.5,318.5 C 468.027,319.906 467.027,320.573 465.5,320.5C 465.973,319.094 466.973,318.427 468.5,318.5 Z"/></g>
<g><path style="opacity:0.359" fill="#141414" d="M 32.5,317.5 C 35.0892,318.419 37.0892,320.086 38.5,322.5C 35.9108,321.581 33.9108,319.914 32.5,317.5 Z"/></g>
<g><path style="opacity:0.373" fill="#000000" d="M 459.5,324.5 C 459.027,325.906 458.027,326.573 456.5,326.5C 456.973,325.094 457.973,324.427 459.5,324.5 Z"/></g>
<g><path style="opacity:0.335" fill="#111111" d="M 40.5,324.5 C 42.0269,324.427 43.0269,325.094 43.5,326.5C 41.9731,326.573 40.9731,325.906 40.5,324.5 Z"/></g>
<g><path style="opacity:0.361" fill="#000000" d="M 44.5,327.5 C 46.0269,327.427 47.0269,328.094 47.5,329.5C 45.9731,329.573 44.9731,328.906 44.5,327.5 Z"/></g>
<g><path style="opacity:0.324" fill="#000000" d="M 300.5,328.5 C 295.167,328.5 289.833,328.5 284.5,328.5C 284.5,336.5 284.5,344.5 284.5,352.5C 289.167,352.5 293.833,352.5 298.5,352.5C 293.695,353.487 288.695,353.821 283.5,353.5C 283.5,344.833 283.5,336.167 283.5,327.5C 289.358,327.178 295.025,327.511 300.5,328.5 Z"/></g>
<g><path style="opacity:0.327" fill="#000000" d="M 305.5,330.5 C 306.833,330.5 307.5,331.167 307.5,332.5C 306.5,332.167 305.833,331.5 305.5,330.5 Z"/></g>
<g><path style="opacity:0.357" fill="#000000" d="M 179.5,338.5 C 178.833,337.833 178.167,337.167 177.5,336.5C 177.369,335.761 177.536,335.094 178,334.5C 179.188,335.563 179.688,336.897 179.5,338.5 Z"/></g>
<g><path style="opacity:0.374" fill="#000000" d="M 339.5,360.5 C 339.573,362.027 338.906,363.027 337.5,363.5C 337.427,361.973 338.094,360.973 339.5,360.5 Z"/></g>
<g><path style="opacity:0.663" fill="#000000" d="M 189.5,371.5 C 190.434,372.568 190.768,373.901 190.5,375.5C 182.14,375.831 173.807,375.498 165.5,374.5C 165.624,373.893 165.957,373.56 166.5,373.5C 173.982,374.492 181.648,374.825 189.5,374.5C 189.5,373.5 189.5,372.5 189.5,371.5 Z"/></g>
<g><path style="opacity:0.398" fill="#000000" d="M 312.5,375.5 C 303.348,376.494 294.015,376.827 284.5,376.5C 284.5,390.5 284.5,404.5 284.5,418.5C 272.5,418.5 260.5,418.5 248.5,418.5C 248.5,418.167 248.5,417.833 248.5,417.5C 260.167,417.5 271.833,417.5 283.5,417.5C 283.5,403.5 283.5,389.5 283.5,375.5C 293.167,375.5 302.833,375.5 312.5,375.5 Z"/></g>
<g><path style="opacity:0.494" fill="#000000" d="M 153.5,415.5 C 153.5,416.5 153.5,417.5 153.5,418.5C 141.167,418.5 128.833,418.5 116.5,418.5C 116.328,417.508 116.662,416.842 117.5,416.5C 123.157,417.166 128.99,417.499 135,417.5C 141.407,417.457 147.574,416.79 153.5,415.5 Z"/></g>
<g><path style="opacity:0.498" fill="#000000" d="M 239.5,415.5 C 240.404,416.209 240.737,417.209 240.5,418.5C 228.167,418.5 215.833,418.5 203.5,418.5C 203.5,418.167 203.5,417.833 203.5,417.5C 215.88,418.146 227.88,417.479 239.5,415.5 Z"/></g>
</svg>
