<?xml version="1.0" encoding="UTF-8"?>
<!DOCTYPE svg PUBLIC "-//W3C//DTD SVG 1.1//EN" "http://www.w3.org/Graphics/SVG/1.1/DTD/svg11.dtd">
<svg xmlns="http://www.w3.org/2000/svg" version="1.1" width="512px" height="512px" style="shape-rendering:geometricPrecision; text-rendering:geometricPrecision; image-rendering:optimizeQuality; fill-rule:evenodd; clip-rule:evenodd" xmlns:xlink="http://www.w3.org/1999/xlink">
<g><path style="opacity:1" fill="#d8d8d8" d="M 457.5,175.5 C 457.833,176.5 458.5,177.167 459.5,177.5C 460.613,178.946 460.78,180.613 460,182.5C 457.297,185.371 454.464,188.038 451.5,190.5C 448.236,192.094 445.569,194.427 443.5,197.5C 438.167,203.5 432.5,209.167 426.5,214.5C 422.9,216.43 419.9,219.097 417.5,222.5C 412.167,228.5 406.5,234.167 400.5,239.5C 396.9,241.43 393.9,244.097 391.5,247.5C 386.167,253.5 380.5,259.167 374.5,264.5C 370.9,266.43 367.9,269.097 365.5,272.5C 360.167,278.5 354.5,284.167 348.5,289.5C 344.9,291.43 341.9,294.097 339.5,297.5C 334.167,303.5 328.5,309.167 322.5,314.5C 318.9,316.43 315.9,319.097 313.5,322.5C 308.167,328.5 302.5,334.167 296.5,339.5C 292.9,341.43 289.9,344.097 287.5,347.5C 282.167,353.5 276.5,359.167 270.5,364.5C 266.9,366.43 263.9,369.097 261.5,372.5C 256.167,378.5 250.5,384.167 244.5,389.5C 240.9,391.43 237.9,394.097 235.5,397.5C 230.167,403.5 224.5,409.167 218.5,414.5C 214.9,416.43 211.9,419.097 209.5,422.5C 204.167,428.5 198.5,434.167 192.5,439.5C 188.9,441.43 185.9,444.097 183.5,447.5C 178.036,453.465 172.37,459.298 166.5,465C 164.975,466.009 163.308,466.509 161.5,466.5C 160.71,465.599 159.71,464.932 158.5,464.5C 125.074,333.463 92.2408,202.13 60,70.5C 58.6764,63.4949 61.5098,60.9949 68.5,63C 198.42,100.059 328.086,137.559 457.5,175.5 Z M 73.5,74.5 C 98.9401,82.28 124.607,89.6133 150.5,96.5C 150.918,97.2216 151.584,97.7216 152.5,98C 151.619,98.7083 150.953,99.5416 150.5,100.5C 143.833,106.5 137.5,112.833 131.5,119.5C 127.9,121.43 124.9,124.097 122.5,127.5C 116.167,133.167 110.167,139.167 104.5,145.5C 103.167,145.5 102.5,146.167 102.5,147.5C 101.833,147.5 101.5,147.833 101.5,148.5C 98.5726,149.757 96.2393,151.757 94.5,154.5C 93.5416,154.953 92.7083,155.619 92,156.5C 85.4514,129.636 78.6181,102.97 71.5,76.5C 71.5,75.1667 72.1667,74.5 73.5,74.5 Z M 247.5,124.5 C 247.918,125.222 248.584,125.722 249.5,126C 248.944,126.383 248.611,126.883 248.5,127.5C 242.5,132.833 236.833,138.5 231.5,144.5C 227.9,146.43 224.9,149.097 222.5,152.5C 216.167,158.167 210.167,164.167 204.5,170.5C 200.9,172.43 197.9,175.097 195.5,178.5C 193.537,179.96 191.704,181.627 190,183.5C 182.89,156.603 176.557,129.603 171,102.5C 196.333,110.375 221.833,117.709 247.5,124.5 Z M 159.5,105.5 C 160.167,106.5 160.833,107.5 161.5,108.5C 167.658,134.131 173.658,159.797 179.5,185.5C 152.823,178.109 126.156,170.609 99.5,163C 100.056,162.617 100.389,162.117 100.5,161.5C 103.427,160.243 105.761,158.243 107.5,155.5C 113.5,150.167 119.167,144.5 124.5,138.5C 128.1,136.57 131.1,133.903 133.5,130.5C 139.5,125.167 145.167,119.5 150.5,113.5C 153.764,111.906 156.431,109.573 158.5,106.5C 159.167,106.5 159.5,106.167 159.5,105.5 Z M 268.5,130.5 C 293.563,138.406 318.896,145.739 344.5,152.5C 344.918,153.222 345.584,153.722 346.5,154C 343.629,156.703 340.962,159.536 338.5,162.5C 332.167,168.167 326.167,174.167 320.5,180.5C 316.9,182.43 313.9,185.097 311.5,188.5C 305.167,194.167 299.167,200.167 293.5,206.5C 290.907,207.754 288.573,209.42 286.5,211.5C 280.611,185.611 274.278,159.945 267.5,134.5C 267.232,132.901 267.566,131.568 268.5,130.5 Z M 258.5,136.5 C 263.754,161.126 269.754,185.46 276.5,209.5C 276.843,211.483 276.176,212.817 274.5,213.5C 249.066,205.721 223.4,198.388 197.5,191.5C 199.167,189.5 200.833,187.5 202.5,185.5C 209.167,179.5 215.5,173.167 221.5,166.5C 225.1,164.57 228.1,161.903 230.5,158.5C 236.833,152.833 242.833,146.833 248.5,140.5C 251.731,138.78 254.564,136.447 257,133.5C 257.232,134.737 257.732,135.737 258.5,136.5 Z M 365.5,158.5 C 391.958,166.62 418.625,174.453 445.5,182C 439.63,187.702 433.964,193.535 428.5,199.5C 424.9,201.43 421.9,204.097 419.5,207.5C 413.5,212.833 407.833,218.5 402.5,224.5C 398.9,226.43 395.9,229.097 393.5,232.5C 390.5,234.833 387.833,237.5 385.5,240.5C 384.833,239.833 384.167,239.167 383.5,238.5C 377.611,212.611 371.278,186.945 364.5,161.5C 364.263,160.209 364.596,159.209 365.5,158.5 Z M 353.5,161.5 C 354.167,161.833 354.833,162.167 355.5,162.5C 361.231,188.754 367.564,214.754 374.5,240.5C 373.791,241.404 372.791,241.737 371.5,241.5C 346.066,233.721 320.4,226.388 294.5,219.5C 294.833,218.833 295.167,218.167 295.5,217.5C 301.833,211.833 307.833,205.833 313.5,199.5C 314.833,199.5 315.5,198.833 315.5,197.5C 316.167,197.5 316.5,197.167 316.5,196.5C 318.749,195.92 320.415,194.587 321.5,192.5C 327.833,186.833 333.833,180.833 339.5,174.5C 342.764,172.906 345.431,170.573 347.5,167.5C 349.833,165.833 351.833,163.833 353.5,161.5 Z M 95.5,173.5 C 95.8417,172.662 96.5084,172.328 97.5,172.5C 124.306,180.327 150.973,188.327 177.5,196.5C 173.9,198.43 170.9,201.097 168.5,204.5C 162.167,210.167 156.167,216.167 150.5,222.5C 146.9,224.43 143.9,227.097 141.5,230.5C 135.167,236.167 129.167,242.167 123.5,248.5C 120.569,250.091 117.902,252.091 115.5,254.5C 109.278,227.278 102.611,200.278 95.5,173.5 Z M 195.5,200.5 C 220.934,208.279 246.6,215.612 272.5,222.5C 272.611,223.117 272.944,223.617 273.5,224C 270.961,226.37 268.628,228.87 266.5,231.5C 259.833,237.5 253.5,243.833 247.5,250.5C 243.564,252.766 240.231,255.766 237.5,259.5C 230.833,265.5 224.5,271.833 218.5,278.5C 216.833,279.167 215.167,279.833 213.5,280.5C 207.61,254.607 201.276,228.94 194.5,203.5C 194.263,202.209 194.596,201.209 195.5,200.5 Z M 183.5,203.5 C 184.167,204.167 184.833,204.833 185.5,205.5C 191.389,231.389 197.722,257.055 204.5,282.5C 204.715,284.179 204.048,285.179 202.5,285.5C 177.06,277.72 151.393,270.387 125.5,263.5C 124.833,262.833 124.167,262.167 123.5,261.5C 128.833,256.833 133.833,251.833 138.5,246.5C 142.1,244.57 145.1,241.903 147.5,238.5C 154.167,232.5 160.5,226.167 166.5,219.5C 170.1,217.57 173.1,214.903 175.5,211.5C 178.5,209.167 181.167,206.5 183.5,203.5 Z M 292.5,228.5 C 318.844,236.944 345.511,244.61 372.5,251.5C 370.833,253.5 369.167,255.5 367.5,257.5C 361.5,262.833 355.833,268.5 350.5,274.5C 346.9,276.43 343.9,279.097 341.5,282.5C 335.167,288.167 329.167,294.167 323.5,300.5C 319.9,302.43 316.9,305.097 314.5,308.5C 313.5,308.833 312.833,309.5 312.5,310.5C 311.833,310.167 311.167,309.833 310.5,309.5C 304.79,283.329 298.457,257.329 291.5,231.5C 291.263,230.209 291.596,229.209 292.5,228.5 Z M 280.5,231.5 C 281.167,232.167 281.833,232.833 282.5,233.5C 288.232,259.758 294.565,285.758 301.5,311.5C 301.5,312.833 300.833,313.5 299.5,313.5C 274.15,305.409 248.483,298.076 222.5,291.5C 221.833,290.833 221.167,290.167 220.5,289.5C 226.167,284.5 231.5,279.167 236.5,273.5C 240.1,271.57 243.1,268.903 245.5,265.5C 252.167,259.5 258.5,253.167 264.5,246.5C 267.764,244.906 270.431,242.573 272.5,239.5C 275.5,237.167 278.167,234.5 280.5,231.5 Z M 123.5,272.5 C 149.004,280.131 174.67,287.631 200.5,295C 196.63,298.702 192.963,302.536 189.5,306.5C 185.564,308.766 182.231,311.766 179.5,315.5C 173.167,321.167 167.167,327.167 161.5,333.5C 157.9,335.43 154.9,338.097 152.5,341.5C 148.5,344.833 144.833,348.5 141.5,352.5C 140.833,352.167 140.167,351.833 139.5,351.5C 133.611,325.611 127.278,299.945 120.5,274.5C 120.821,272.952 121.821,272.285 123.5,272.5 Z M 297.5,322.5 C 297.833,323.167 298.167,323.833 298.5,324.5C 297.833,324.5 297.5,324.833 297.5,325.5C 293.9,327.43 290.9,330.097 288.5,333.5C 282.5,338.833 276.833,344.5 271.5,350.5C 267.9,352.43 264.9,355.097 262.5,358.5C 256.5,363.833 250.833,369.5 245.5,375.5C 242.944,376.543 240.777,378.21 239,380.5C 238.768,379.263 238.268,378.263 237.5,377.5C 231.714,351.855 225.38,326.355 218.5,301C 244.805,307.995 271.139,315.161 297.5,322.5 Z M 207.5,301.5 C 208.167,301.833 208.833,302.167 209.5,302.5C 215.683,329.227 221.849,355.893 228,382.5C 202.655,374.663 177.155,367.33 151.5,360.5C 150.5,359.833 149.5,359.167 148.5,358.5C 151.167,356.5 153.5,354.167 155.5,351.5C 158.764,349.906 161.431,347.573 163.5,344.5C 169.833,338.833 175.833,332.833 181.5,326.5C 184.764,324.906 187.431,322.573 189.5,319.5C 195.833,313.833 201.833,307.833 207.5,301.5 Z M 145.5,368.5 C 171.888,376.767 198.555,384.434 225.5,391.5C 225.833,392.167 226.167,392.833 226.5,393.5C 223.833,395.5 221.5,397.833 219.5,400.5C 215.564,402.766 212.231,405.766 209.5,409.5C 203.5,414.833 197.833,420.5 192.5,426.5C 188.9,428.43 185.9,431.097 183.5,434.5C 177.5,439.833 171.833,445.5 166.5,451.5C 165.1,450.9 164.1,449.9 163.5,448.5C 157.611,422.611 151.278,396.945 144.5,371.5C 144.263,370.209 144.596,369.209 145.5,368.5 Z"/></g>
<g><path style="opacity:0.502" fill="#111111" d="M 73.5,74.5 C 72.1667,74.5 71.5,75.1667 71.5,76.5C 70.596,75.791 70.2627,74.791 70.5,73.5C 71.791,73.2627 72.791,73.596 73.5,74.5 Z"/></g>
<g><path style="opacity:0.408" fill="#161616" d="M 150.5,96.5 C 155.622,97.4274 155.622,98.7607 150.5,100.5C 150.953,99.5416 151.619,98.7083 152.5,98C 151.584,97.7216 150.918,97.2216 150.5,96.5 Z"/></g>
<g><path style="opacity:0.324" fill="#000000" d="M 159.5,105.5 C 159.56,104.957 159.893,104.624 160.5,104.5C 161.429,105.689 161.762,107.022 161.5,108.5C 160.833,107.5 160.167,106.5 159.5,105.5 Z"/></g>
<g><path style="opacity:0.378" fill="#020202" d="M 158.5,106.5 C 156.431,109.573 153.764,111.906 150.5,113.5C 152.569,110.427 155.236,108.094 158.5,106.5 Z"/></g>
<g><path style="opacity:0.386" fill="#171717" d="M 131.5,119.5 C 129.1,122.903 126.1,125.57 122.5,127.5C 124.9,124.097 127.9,121.43 131.5,119.5 Z"/></g>
<g><path style="opacity:0.258" fill="#282828" d="M 247.5,124.5 C 252.025,124.959 252.358,125.959 248.5,127.5C 248.611,126.883 248.944,126.383 249.5,126C 248.584,125.722 247.918,125.222 247.5,124.5 Z"/></g>
<g><path style="opacity:0.509" fill="#000000" d="M 268.5,130.5 C 267.566,131.568 267.232,132.901 267.5,134.5C 266.766,133.122 266.099,131.622 265.5,130C 266.749,129.26 267.749,129.427 268.5,130.5 Z"/></g>
<g><path style="opacity:0.378" fill="#060606" d="M 133.5,130.5 C 131.1,133.903 128.1,136.57 124.5,138.5C 126.9,135.097 129.9,132.43 133.5,130.5 Z"/></g>
<g><path style="opacity:0.371" fill="#060606" d="M 258.5,136.5 C 257.732,135.737 257.232,134.737 257,133.5C 254.564,136.447 251.731,138.78 248.5,140.5C 250.994,136.662 254.327,133.995 258.5,132.5C 258.5,133.833 258.5,135.167 258.5,136.5 Z"/></g>
<g><path style="opacity:0.378" fill="#0f0f0f" d="M 231.5,144.5 C 229.1,147.903 226.1,150.57 222.5,152.5C 224.9,149.097 227.9,146.43 231.5,144.5 Z"/></g>
<g><path style="opacity:0.45" fill="#000000" d="M 104.5,145.5 C 104.167,146.5 103.5,147.167 102.5,147.5C 102.5,146.167 103.167,145.5 104.5,145.5 Z"/></g>
<g><path style="opacity:0.401" fill="#1e1e1e" d="M 101.5,148.5 C 99.7607,151.243 97.4274,153.243 94.5,154.5C 96.2393,151.757 98.5726,149.757 101.5,148.5 Z"/></g>
<g><path style="opacity:0.383" fill="#121212" d="M 344.5,152.5 C 345.978,152.238 347.311,152.571 348.5,153.5C 345.749,157.257 342.415,160.257 338.5,162.5C 340.962,159.536 343.629,156.703 346.5,154C 345.584,153.722 344.918,153.222 344.5,152.5 Z"/></g>
<g><path style="opacity:0.395" fill="#070707" d="M 107.5,155.5 C 105.761,158.243 103.427,160.243 100.5,161.5C 102.239,158.757 104.573,156.757 107.5,155.5 Z"/></g>
<g><path style="opacity:0.57" fill="#000000" d="M 365.5,158.5 C 364.596,159.209 364.263,160.209 364.5,161.5C 363.218,160.292 363.218,158.958 364.5,157.5C 365.107,157.624 365.44,157.957 365.5,158.5 Z"/></g>
<g><path style="opacity:0.38" fill="#060606" d="M 230.5,158.5 C 228.1,161.903 225.1,164.57 221.5,166.5C 223.9,163.097 226.9,160.43 230.5,158.5 Z"/></g>
<g><path style="opacity:0.308" fill="#191919" d="M 355.5,162.5 C 354.833,162.167 354.167,161.833 353.5,161.5C 354.988,158.814 355.655,159.147 355.5,162.5 Z"/></g>
<g><path style="opacity:0.379" fill="#020202" d="M 347.5,167.5 C 345.431,170.573 342.764,172.906 339.5,174.5C 341.569,171.427 344.236,169.094 347.5,167.5 Z"/></g>
<g><path style="opacity:0.378" fill="#0f0f0f" d="M 204.5,170.5 C 202.1,173.903 199.1,176.57 195.5,178.5C 197.9,175.097 200.9,172.43 204.5,170.5 Z"/></g>
<g><path style="opacity:0.562" fill="#000000" d="M 97.5,172.5 C 96.5084,172.328 95.8417,172.662 95.5,173.5C 94.1153,172.698 94.282,172.031 96,171.5C 96.7648,171.57 97.2648,171.903 97.5,172.5 Z"/></g>
<g><path style="opacity:0.392" fill="#000000" d="M 457.5,175.5 C 458.833,175.5 459.5,176.167 459.5,177.5C 458.5,177.167 457.833,176.5 457.5,175.5 Z"/></g>
<g><path style="opacity:0.389" fill="#111111" d="M 320.5,180.5 C 318.1,183.903 315.1,186.57 311.5,188.5C 313.9,185.097 316.9,182.43 320.5,180.5 Z"/></g>
<g><path style="opacity:0.839" fill="#161616" d="M 180.5,185.5 C 181.043,185.56 181.376,185.893 181.5,186.5C 180.743,187.773 180.077,187.773 179.5,186.5C 180.167,186.5 180.5,186.167 180.5,185.5 Z"/></g>
<g><path style="opacity:0.41" fill="#070707" d="M 202.5,185.5 C 200.833,187.5 199.167,189.5 197.5,191.5C 196.761,191.631 196.094,191.464 195.5,191C 197.441,188.546 199.775,186.713 202.5,185.5 Z"/></g>
<g><path style="opacity:0.378" fill="#020202" d="M 451.5,190.5 C 449.431,193.573 446.764,195.906 443.5,197.5C 445.569,194.427 448.236,192.094 451.5,190.5 Z"/></g>
<g><path style="opacity:0.405" fill="#030303" d="M 321.5,192.5 C 320.415,194.587 318.749,195.92 316.5,196.5C 317.585,194.413 319.251,193.08 321.5,192.5 Z"/></g>
<g><path style="opacity:0.38" fill="#131313" d="M 177.5,196.5 C 175.1,199.903 172.1,202.57 168.5,204.5C 170.9,201.097 173.9,198.43 177.5,196.5 Z"/></g>
<g><path style="opacity:0.444" fill="#000000" d="M 315.5,197.5 C 315.5,198.833 314.833,199.5 313.5,199.5C 313.833,198.5 314.5,197.833 315.5,197.5 Z"/></g>
<g><path style="opacity:0.55" fill="#000000" d="M 195.5,200.5 C 194.596,201.209 194.263,202.209 194.5,203.5C 193.218,202.292 193.218,200.958 194.5,199.5C 195.107,199.624 195.44,199.957 195.5,200.5 Z"/></g>
<g><path style="opacity:0.378" fill="#1a1a1a" d="M 428.5,199.5 C 426.1,202.903 423.1,205.57 419.5,207.5C 421.9,204.097 424.9,201.43 428.5,199.5 Z"/></g>
<g><path style="opacity:0.259" fill="#090909" d="M 185.5,205.5 C 184.833,204.833 184.167,204.167 183.5,203.5C 183.783,202.711 184.283,202.044 185,201.5C 185.49,202.793 185.657,204.127 185.5,205.5 Z"/></g>
<g><path style="opacity:0.376" fill="#000000" d="M 293.5,206.5 C 292.04,208.463 290.373,210.296 288.5,212C 287.563,212.692 286.897,212.525 286.5,211.5C 288.573,209.42 290.907,207.754 293.5,206.5 Z"/></g>
<g><path style="opacity:0.409" fill="#121212" d="M 276.5,209.5 C 277.451,210.919 277.784,212.585 277.5,214.5C 276.209,214.737 275.209,214.404 274.5,213.5C 276.176,212.817 276.843,211.483 276.5,209.5 Z"/></g>
<g><path style="opacity:0.38" fill="#060606" d="M 175.5,211.5 C 173.1,214.903 170.1,217.57 166.5,219.5C 168.9,216.097 171.9,213.43 175.5,211.5 Z"/></g>
<g><path style="opacity:0.378" fill="#060606" d="M 426.5,214.5 C 424.1,217.903 421.1,220.57 417.5,222.5C 419.9,219.097 422.9,216.43 426.5,214.5 Z"/></g>
<g><path style="opacity:0.071" fill="#0d0d0d" d="M 295.5,217.5 C 295.167,218.167 294.833,218.833 294.5,219.5C 293.243,218.377 293.576,217.711 295.5,217.5 Z"/></g>
<g><path style="opacity:0.38" fill="#131313" d="M 150.5,222.5 C 148.1,225.903 145.1,228.57 141.5,230.5C 143.9,227.097 146.9,224.43 150.5,222.5 Z"/></g>
<g><path style="opacity:0.373" fill="#171717" d="M 272.5,222.5 C 274.355,222.272 275.188,222.939 275,224.5C 272.564,227.447 269.731,229.78 266.5,231.5C 268.628,228.87 270.961,226.37 273.5,224C 272.944,223.617 272.611,223.117 272.5,222.5 Z"/></g>
<g><path style="opacity:0.383" fill="#171717" d="M 402.5,224.5 C 400.1,227.903 397.1,230.57 393.5,232.5C 395.9,229.097 398.9,226.43 402.5,224.5 Z"/></g>
<g><path style="opacity:0.445" fill="#090909" d="M 292.5,228.5 C 291.596,229.209 291.263,230.209 291.5,231.5C 290.218,230.292 290.218,228.958 291.5,227.5C 292.107,227.624 292.44,227.957 292.5,228.5 Z"/></g>
<g><path style="opacity:0.366" fill="#000000" d="M 280.5,231.5 C 280.56,230.957 280.893,230.624 281.5,230.5C 282.386,231.325 282.719,232.325 282.5,233.5C 281.833,232.833 281.167,232.167 280.5,231.5 Z"/></g>
<g><path style="opacity:0.275" fill="#161616" d="M 383.5,238.5 C 384.167,239.167 384.833,239.833 385.5,240.5C 385.217,241.289 384.717,241.956 384,242.5C 383.51,241.207 383.343,239.873 383.5,238.5 Z"/></g>
<g><path style="opacity:0.373" fill="#060606" d="M 147.5,238.5 C 145.1,241.903 142.1,244.57 138.5,246.5C 140.9,243.097 143.9,240.43 147.5,238.5 Z"/></g>
<g><path style="opacity:0.382" fill="#020202" d="M 272.5,239.5 C 270.431,242.573 267.764,244.906 264.5,246.5C 266.569,243.427 269.236,241.094 272.5,239.5 Z"/></g>
<g><path style="opacity:0.478" fill="#000000" d="M 374.5,240.5 C 375.751,241.472 375.418,242.139 373.5,242.5C 372.584,242.457 371.917,242.124 371.5,241.5C 372.791,241.737 373.791,241.404 374.5,240.5 Z"/></g>
<g><path style="opacity:0.378" fill="#060606" d="M 400.5,239.5 C 398.1,242.903 395.1,245.57 391.5,247.5C 393.9,244.097 396.9,241.43 400.5,239.5 Z"/></g>
<g><path style="opacity:0.383" fill="#0d0d0d" d="M 123.5,248.5 C 121.706,250.797 119.706,252.963 117.5,255C 116.563,255.692 115.897,255.525 115.5,254.5C 117.902,252.091 120.569,250.091 123.5,248.5 Z"/></g>
<g><path style="opacity:0.382" fill="#181818" d="M 247.5,250.5 C 244.769,254.234 241.436,257.234 237.5,259.5C 240.231,255.766 243.564,252.766 247.5,250.5 Z"/></g>
<g><path style="opacity:0.379" fill="#181818" d="M 372.5,251.5 C 373.525,251.897 373.692,252.563 373,253.5C 371.549,255.464 369.716,256.797 367.5,257.5C 369.167,255.5 370.833,253.5 372.5,251.5 Z"/></g>
<g><path style="opacity:0.352" fill="#000000" d="M 123.5,261.5 C 124.167,262.167 124.833,262.833 125.5,263.5C 124.325,263.719 123.325,263.386 122.5,262.5C 122.624,261.893 122.957,261.56 123.5,261.5 Z"/></g>
<g><path style="opacity:0.376" fill="#060606" d="M 374.5,264.5 C 372.1,267.903 369.1,270.57 365.5,272.5C 367.9,269.097 370.9,266.43 374.5,264.5 Z"/></g>
<g><path style="opacity:0.378" fill="#060606" d="M 245.5,265.5 C 243.1,268.903 240.1,271.57 236.5,273.5C 238.9,270.097 241.9,267.43 245.5,265.5 Z"/></g>
<g><path style="opacity:0.491" fill="#000000" d="M 123.5,272.5 C 121.821,272.285 120.821,272.952 120.5,274.5C 119.402,273.399 119.235,272.066 120,270.5C 121.302,271.085 122.469,271.751 123.5,272.5 Z"/></g>
<g><path style="opacity:0.373" fill="#0f0f0f" d="M 350.5,274.5 C 348.1,277.903 345.1,280.57 341.5,282.5C 343.9,279.097 346.9,276.43 350.5,274.5 Z"/></g>
<g><path style="opacity:0.357" fill="#000000" d="M 218.5,278.5 C 217.521,280.145 216.188,281.479 214.5,282.5C 213.702,282.043 213.369,281.376 213.5,280.5C 215.167,279.833 216.833,279.167 218.5,278.5 Z"/></g>
<g><path style="opacity:0.459" fill="#000000" d="M 204.5,282.5 C 205.434,283.568 205.768,284.901 205.5,286.5C 204.209,286.737 203.209,286.404 202.5,285.5C 204.048,285.179 204.715,284.179 204.5,282.5 Z"/></g>
<g><path style="opacity:0.381" fill="#000000" d="M 220.5,289.5 C 221.167,290.167 221.833,290.833 222.5,291.5C 221.325,291.719 220.325,291.386 219.5,290.5C 219.624,289.893 219.957,289.56 220.5,289.5 Z"/></g>
<g><path style="opacity:0.376" fill="#060606" d="M 348.5,289.5 C 346.1,292.903 343.1,295.57 339.5,297.5C 341.9,294.097 344.9,291.43 348.5,289.5 Z"/></g>
<g><path style="opacity:0.375" fill="#000000" d="M 207.5,301.5 C 208.623,300.243 209.289,300.576 209.5,302.5C 208.833,302.167 208.167,301.833 207.5,301.5 Z"/></g>
<g><path style="opacity:0.378" fill="#1a1a1a" d="M 323.5,300.5 C 321.1,303.903 318.1,306.57 314.5,308.5C 316.9,305.097 319.9,302.43 323.5,300.5 Z"/></g>
<g><path style="opacity:0.371" fill="#181818" d="M 189.5,306.5 C 186.769,310.234 183.436,313.234 179.5,315.5C 182.231,311.766 185.564,308.766 189.5,306.5 Z"/></g>
<g><path style="opacity:0.35" fill="#000000" d="M 310.5,309.5 C 311.167,309.833 311.833,310.167 312.5,310.5C 311.012,313.186 310.345,312.853 310.5,309.5 Z"/></g>
<g><path style="opacity:0.515" fill="#000000" d="M 301.5,311.5 C 302.404,312.209 302.737,313.209 302.5,314.5C 301.209,314.737 300.209,314.404 299.5,313.5C 300.833,313.5 301.5,312.833 301.5,311.5 Z"/></g>
<g><path style="opacity:0.376" fill="#060606" d="M 322.5,314.5 C 320.1,317.903 317.1,320.57 313.5,322.5C 315.9,319.097 318.9,316.43 322.5,314.5 Z"/></g>
<g><path style="opacity:0.375" fill="#060606" d="M 189.5,319.5 C 187.431,322.573 184.764,324.906 181.5,326.5C 183.569,323.427 186.236,321.094 189.5,319.5 Z"/></g>
<g><path style="opacity:0.331" fill="#191919" d="M 297.5,322.5 C 300.853,322.345 301.186,323.012 298.5,324.5C 298.167,323.833 297.833,323.167 297.5,322.5 Z"/></g>
<g><path style="opacity:0.383" fill="#171717" d="M 297.5,325.5 C 295.1,328.903 292.1,331.57 288.5,333.5C 290.9,330.097 293.9,327.43 297.5,325.5 Z"/></g>
<g><path style="opacity:0.38" fill="#0f0f0f" d="M 161.5,333.5 C 159.1,336.903 156.1,339.57 152.5,341.5C 154.9,338.097 157.9,335.43 161.5,333.5 Z"/></g>
<g><path style="opacity:0.376" fill="#060606" d="M 296.5,339.5 C 294.1,342.903 291.1,345.57 287.5,347.5C 289.9,344.097 292.9,341.43 296.5,339.5 Z"/></g>
<g><path style="opacity:0.383" fill="#060606" d="M 163.5,344.5 C 161.431,347.573 158.764,349.906 155.5,351.5C 157.569,348.427 160.236,346.094 163.5,344.5 Z"/></g>
<g><path style="opacity:0.38" fill="#131313" d="M 271.5,350.5 C 269.1,353.903 266.1,356.57 262.5,358.5C 264.9,355.097 267.9,352.43 271.5,350.5 Z"/></g>
<g><path style="opacity:0.336" fill="#000000" d="M 139.5,351.5 C 140.167,351.833 140.833,352.167 141.5,352.5C 140.012,355.186 139.345,354.853 139.5,351.5 Z"/></g>
<g><path style="opacity:0.38" fill="#000000" d="M 148.5,358.5 C 149.5,359.167 150.5,359.833 151.5,360.5C 150.022,360.762 148.689,360.429 147.5,359.5C 147.624,358.893 147.957,358.56 148.5,358.5 Z"/></g>
<g><path style="opacity:0.376" fill="#060606" d="M 270.5,364.5 C 268.1,367.903 265.1,370.57 261.5,372.5C 263.9,369.097 266.9,366.43 270.5,364.5 Z"/></g>
<g><path style="opacity:0.508" fill="#000000" d="M 145.5,368.5 C 144.596,369.209 144.263,370.209 144.5,371.5C 143.218,370.292 143.218,368.958 144.5,367.5C 145.107,367.624 145.44,367.957 145.5,368.5 Z"/></g>
<g><path style="opacity:0.368" fill="#030303" d="M 245.5,375.5 C 243.539,377.963 241.372,380.297 239,382.5C 237.731,381.095 237.231,379.429 237.5,377.5C 238.268,378.263 238.768,379.263 239,380.5C 240.777,378.21 242.944,376.543 245.5,375.5 Z"/></g>
<g><path style="opacity:0.372" fill="#000000" d="M 225.5,391.5 C 228.853,391.345 229.186,392.012 226.5,393.5C 226.167,392.833 225.833,392.167 225.5,391.5 Z"/></g>
<g><path style="opacity:0.376" fill="#060606" d="M 244.5,389.5 C 242.1,392.903 239.1,395.57 235.5,397.5C 237.9,394.097 240.9,391.43 244.5,389.5 Z"/></g>
<g><path style="opacity:0.373" fill="#181818" d="M 219.5,400.5 C 216.769,404.234 213.436,407.234 209.5,409.5C 212.231,405.766 215.564,402.766 219.5,400.5 Z"/></g>
<g><path style="opacity:0.376" fill="#060606" d="M 218.5,414.5 C 216.1,417.903 213.1,420.57 209.5,422.5C 211.9,419.097 214.9,416.43 218.5,414.5 Z"/></g>
<g><path style="opacity:0.375" fill="#1a1a1a" d="M 192.5,426.5 C 190.1,429.903 187.1,432.57 183.5,434.5C 185.9,431.097 188.9,428.43 192.5,426.5 Z"/></g>
<g><path style="opacity:0.373" fill="#060606" d="M 192.5,439.5 C 190.1,442.903 187.1,445.57 183.5,447.5C 185.9,444.097 188.9,441.43 192.5,439.5 Z"/></g>
<g><path style="opacity:0.398" fill="#000000" d="M 163.5,448.5 C 164.1,449.9 165.1,450.9 166.5,451.5C 166.217,452.289 165.717,452.956 165,453.5C 163.731,452.095 163.231,450.429 163.5,448.5 Z"/></g>
<g><path style="opacity:0.422" fill="#131313" d="M 158.5,464.5 C 159.71,464.932 160.71,465.599 161.5,466.5C 159.821,466.715 158.821,466.048 158.5,464.5 Z"/></g>
</svg>
